<svg width="25" height="24" viewBox="0 0 25 24" fill="none" xmlns="http://www.w3.org/2000/svg">
<g id="SVG">
<path id="Vector" d="M18.5 4H6.5C5.39543 4 4.5 4.89543 4.5 6V18C4.5 19.1046 5.39543 20 6.5 20H18.5C19.6046 20 20.5 19.1046 20.5 18V6C20.5 4.89543 19.6046 4 18.5 4Z" stroke="#3B82F6" stroke-width="1.8" stroke-linecap="round" stroke-linejoin="round"/>
<path id="Vector_2" d="M15.5 9H9.5V15H15.5V9Z" stroke="#3B82F6" stroke-width="1.8" stroke-linecap="round" stroke-linejoin="round"/>
<path id="Vector_3" d="M9.5 1V4" stroke="#3B82F6" stroke-width="1.8" stroke-linecap="round" stroke-linejoin="round"/>
<path id="Vector_4" d="M15.5 1V4" stroke="#3B82F6" stroke-width="1.8" stroke-linecap="round" stroke-linejoin="round"/>
<path id="Vector_5" d="M9.5 20V23" stroke="#3B82F6" stroke-width="1.8" stroke-linecap="round" stroke-linejoin="round"/>
<path id="Vector_6" d="M15.5 20V23" stroke="#3B82F6" stroke-width="1.8" stroke-linecap="round" stroke-linejoin="round"/>
<path id="Vector_7" d="M20.5 9H23.5" stroke="#3B82F6" stroke-width="1.8" stroke-linecap="round" stroke-linejoin="round"/>
<path id="Vector_8" d="M20.5 14H23.5" stroke="#3B82F6" stroke-width="1.8" stroke-linecap="round" stroke-linejoin="round"/>
<path id="Vector_9" d="M1.5 9H4.5" stroke="#3B82F6" stroke-width="1.8" stroke-linecap="round" stroke-linejoin="round"/>
<path id="Vector_10" d="M1.5 14H4.5" stroke="#3B82F6" stroke-width="1.8" stroke-linecap="round" stroke-linejoin="round"/>
</g>
</svg>
