<svg width="28" height="32" viewBox="0 0 28 32" fill="none" xmlns="http://www.w3.org/2000/svg">
<path d="M6.65353 16.7716C6.83507 16.3122 7.41328 16.1657 7.79165 16.4832L14.5685 22.1696C14.9468 22.4871 14.903 23.082 14.4821 23.3405L10.9076 25.5366C10.6422 25.6997 10.3022 25.6746 10.0636 25.4744L5.31936 21.4935C5.08076 21.2933 4.99704 20.9628 5.11152 20.6732L6.65353 16.7716Z" fill="#FFAA5C"/>
<path d="M3.52474 22.8216C3.65319 22.6685 3.88141 22.6485 4.03448 22.777L4.31165 23.0095C4.46472 23.138 4.48469 23.3662 4.35624 23.5193L1.33282 27.1224C1.20438 27.2755 0.976159 27.2955 0.823084 27.167L0.545917 26.9345C0.392842 26.806 0.372875 26.5778 0.501321 26.4247L3.52474 22.8216Z" fill="#FFAA5C"/>
<path d="M5.88041 24.7982C6.00885 24.6451 6.23707 24.6252 6.39015 24.7536L6.66731 24.9862C6.82039 25.1146 6.84035 25.3428 6.71191 25.4959L1.36278 31.8707C1.23433 32.0238 1.00611 32.0438 0.853039 31.9153L0.575872 31.6828C0.422797 31.5543 0.40283 31.3261 0.531276 31.173L5.88041 24.7982Z" fill="#FFAA5C"/>
<path d="M8.23662 26.7753C8.36507 26.6222 8.59328 26.6022 8.74636 26.7307L9.02353 26.9633C9.1766 27.0917 9.19657 27.3199 9.06812 27.473L6.0447 31.0762C5.91626 31.2293 5.68804 31.2492 5.53496 31.1208L5.2578 30.8882C5.10472 30.7598 5.08475 30.5315 5.2132 30.3785L8.23662 26.7753Z" fill="#FFAA5C"/>
<path d="M25.6861 0.0892891C26.733 -0.291757 27.7998 0.603408 27.6064 1.70059L23.0358 27.6214C22.8424 28.7186 21.5337 29.1949 20.6803 28.4788L0.517411 11.5602C-0.336042 10.844 -0.0942156 9.47255 0.9527 9.0915L25.6861 0.0892891Z" fill="#FFAA5C"/>
<path d="M25.6861 0.0892891C26.733 -0.291757 27.7998 0.603408 27.6064 1.70059L23.0358 27.6214C22.8424 28.7186 21.5337 29.1949 20.6803 28.4788L0.517411 11.5602C-0.336042 10.844 -0.0942156 9.47255 0.9527 9.0915L25.6861 0.0892891Z" fill="#FFAA5C"/>
</svg>
