<svg width="822" height="328" viewBox="0 0 822 328" fill="none" xmlns="http://www.w3.org/2000/svg">
<path d="M353.4 286V279.6H356.6C359.587 279.6 361.933 278.72 363.64 276.96C365.347 275.147 366.2 272.693 366.2 269.6V226.4H372.6V269.6C372.6 272.96 371.933 275.867 370.6 278.32C369.32 280.773 367.48 282.667 365.08 284C362.68 285.333 359.853 286 356.6 286H353.4Z" fill="#1B1B1B"/>
<path d="M405.865 286.96C401.812 286.96 398.132 286 394.825 284.08C391.518 282.107 388.878 279.44 386.905 276.08C384.985 272.667 384.025 268.8 384.025 264.48C384.025 260.213 384.985 256.4 386.905 253.04C388.825 249.68 391.412 247.04 394.665 245.12C397.972 243.147 401.705 242.16 405.865 242.16C410.025 242.16 413.732 243.12 416.985 245.04C420.292 246.96 422.878 249.6 424.745 252.96C426.665 256.32 427.625 260.16 427.625 264.48C427.625 268.853 426.638 272.747 424.665 276.16C422.692 279.52 420.052 282.16 416.745 284.08C413.492 286 409.865 286.96 405.865 286.96ZM405.865 280.96C408.745 280.96 411.332 280.24 413.625 278.8C415.972 277.36 417.812 275.387 419.145 272.88C420.532 270.373 421.225 267.573 421.225 264.48C421.225 261.387 420.532 258.613 419.145 256.16C417.812 253.707 415.972 251.76 413.625 250.32C411.332 248.88 408.745 248.16 405.865 248.16C402.985 248.16 400.372 248.88 398.025 250.32C395.732 251.76 393.892 253.707 392.505 256.16C391.118 258.613 390.425 261.387 390.425 264.48C390.425 267.573 391.118 270.373 392.505 272.88C393.892 275.387 395.732 277.36 398.025 278.8C400.372 280.24 402.985 280.96 405.865 280.96Z" fill="#1B1B1B"/>
<path d="M459.887 286.96C456.207 286.96 452.874 286.133 449.887 284.48C446.954 282.773 444.74 280.373 443.247 277.28L444.207 276.4V286H438.207V225.44H444.207V252.72L443.247 251.04C444.954 248.32 447.22 246.16 450.047 244.56C452.927 242.96 456.207 242.16 459.887 242.16C463.94 242.16 467.54 243.147 470.687 245.12C473.887 247.04 476.394 249.68 478.207 253.04C480.074 256.4 481.007 260.24 481.007 264.56C481.007 268.827 480.074 272.667 478.207 276.08C476.394 279.44 473.887 282.107 470.687 284.08C467.54 286 463.94 286.96 459.887 286.96ZM459.567 280.96C462.447 280.96 465.007 280.24 467.247 278.8C469.54 277.36 471.327 275.413 472.607 272.96C473.94 270.453 474.607 267.653 474.607 264.56C474.607 261.413 473.94 258.613 472.607 256.16C471.327 253.707 469.54 251.76 467.247 250.32C465.007 248.88 462.447 248.16 459.567 248.16C456.687 248.16 454.074 248.88 451.727 250.32C449.434 251.76 447.594 253.733 446.207 256.24C444.874 258.693 444.207 261.467 444.207 264.56C444.207 267.653 444.874 270.453 446.207 272.96C447.594 275.413 449.434 277.36 451.727 278.8C454.074 280.24 456.687 280.96 459.567 280.96Z" fill="#1B1B1B"/>
<path d="M506.04 286V226.4H526.52C530.413 226.4 533.827 227.173 536.76 228.72C539.693 230.213 541.96 232.347 543.56 235.12C545.213 237.84 546.04 241.013 546.04 244.64C546.04 248.267 545.213 251.44 543.56 254.16C541.96 256.88 539.693 259.013 536.76 260.56C533.88 262.053 530.467 262.8 526.52 262.8H512.44V286H506.04ZM512.44 256.8H526.84C529.4 256.8 531.64 256.32 533.56 255.36C535.48 254.347 536.973 252.933 538.04 251.12C539.107 249.253 539.64 247.067 539.64 244.56C539.64 242.053 539.107 239.893 538.04 238.08C536.973 236.267 535.48 234.88 533.56 233.92C531.64 232.907 529.4 232.4 526.84 232.4H512.44V256.8Z" fill="#1B1B1B"/>
<path d="M575.084 286.96C571.03 286.96 567.35 286 564.044 284.08C560.737 282.107 558.097 279.44 556.124 276.08C554.204 272.667 553.244 268.8 553.244 264.48C553.244 260.213 554.204 256.4 556.124 253.04C558.044 249.68 560.63 247.04 563.884 245.12C567.19 243.147 570.924 242.16 575.084 242.16C579.244 242.16 582.95 243.12 586.204 245.04C589.51 246.96 592.097 249.6 593.964 252.96C595.884 256.32 596.844 260.16 596.844 264.48C596.844 268.853 595.857 272.747 593.884 276.16C591.91 279.52 589.27 282.16 585.964 284.08C582.71 286 579.084 286.96 575.084 286.96ZM575.084 280.96C577.964 280.96 580.55 280.24 582.844 278.8C585.19 277.36 587.03 275.387 588.364 272.88C589.75 270.373 590.444 267.573 590.444 264.48C590.444 261.387 589.75 258.613 588.364 256.16C587.03 253.707 585.19 251.76 582.844 250.32C580.55 248.88 577.964 248.16 575.084 248.16C572.204 248.16 569.59 248.88 567.244 250.32C564.95 251.76 563.11 253.707 561.724 256.16C560.337 258.613 559.644 261.387 559.644 264.48C559.644 267.573 560.337 270.373 561.724 272.88C563.11 275.387 564.95 277.36 567.244 278.8C569.59 280.24 572.204 280.96 575.084 280.96Z" fill="#1B1B1B"/>
<path d="M607.426 286V243.12H613.426V250.16L612.626 249.12C613.639 247.093 615.159 245.493 617.186 244.32C619.266 243.147 621.772 242.56 624.706 242.56H627.426V248.56H623.666C620.572 248.56 618.092 249.52 616.226 251.44C614.359 253.36 613.426 256.08 613.426 259.6V286H607.426Z" fill="#1B1B1B"/>
<path d="M650.857 286.48C647.017 286.48 644.057 285.36 641.977 283.12C639.897 280.88 638.857 277.68 638.857 273.52V249.12H630.937V243.12H632.937C634.75 243.12 636.19 242.533 637.257 241.36C638.324 240.133 638.857 238.613 638.857 236.8V233.2H644.857V243.12H654.297V249.12H644.857V273.52C644.857 274.96 645.07 276.24 645.497 277.36C645.924 278.427 646.644 279.28 647.657 279.92C648.724 280.56 650.137 280.88 651.897 280.88C652.324 280.88 652.83 280.853 653.417 280.8C654.004 280.747 654.51 280.693 654.937 280.64V286C654.297 286.16 653.577 286.267 652.777 286.32C651.977 286.427 651.337 286.48 650.857 286.48Z" fill="#1B1B1B"/>
<path d="M677.091 286.96C674.371 286.96 671.945 286.453 669.811 285.44C667.678 284.373 665.998 282.933 664.771 281.12C663.545 279.307 662.931 277.227 662.931 274.88C662.931 272.64 663.411 270.613 664.371 268.8C665.331 266.933 666.825 265.36 668.851 264.08C670.878 262.8 673.465 261.893 676.611 261.36L693.411 258.56V264L678.051 266.56C674.958 267.093 672.718 268.08 671.331 269.52C669.998 270.96 669.331 272.667 669.331 274.64C669.331 276.56 670.078 278.187 671.571 279.52C673.118 280.853 675.091 281.52 677.491 281.52C680.425 281.52 682.985 280.907 685.171 279.68C687.358 278.4 689.065 276.693 690.291 274.56C691.518 272.427 692.131 270.053 692.131 267.44V256.56C692.131 254 691.198 251.92 689.331 250.32C687.465 248.72 685.038 247.92 682.051 247.92C679.438 247.92 677.145 248.587 675.171 249.92C673.198 251.2 671.731 252.88 670.771 254.96L665.331 252C666.131 250.187 667.385 248.533 669.091 247.04C670.851 245.547 672.851 244.373 675.091 243.52C677.331 242.613 679.651 242.16 682.051 242.16C685.198 242.16 687.971 242.773 690.371 244C692.825 245.227 694.718 246.933 696.051 249.12C697.438 251.253 698.131 253.733 698.131 256.56V286H692.131V277.44L693.011 278.32C692.265 279.92 691.091 281.387 689.491 282.72C687.945 284 686.105 285.04 683.971 285.84C681.891 286.587 679.598 286.96 677.091 286.96Z" fill="#1B1B1B"/>
<path d="M710.472 286V225.44H716.472V286H710.472Z" fill="#1B1B1B"/>
<path d="M64.3679 160.297C63.4009 157.396 65.5602 154.4 68.618 154.4H123.387C126.445 154.4 128.604 157.396 127.637 160.297L119.423 184.937C118.814 186.766 117.102 188 115.173 188H76.8313C74.903 188 73.191 186.766 72.5812 184.937L64.3679 160.297Z" fill="#358FBE"/>
<path d="M73.5977 201.44C73.5977 200.203 74.6005 199.2 75.8377 199.2H78.0777C79.3148 199.2 80.3177 200.203 80.3177 201.44V230.56C80.3177 231.797 79.3148 232.8 78.0777 232.8H75.8377C74.6005 232.8 73.5977 231.797 73.5977 230.56V201.44Z" fill="#1B1B1B"/>
<path d="M92.6367 201.44C92.6367 200.203 93.6396 199.2 94.8767 199.2H97.1167C98.3538 199.2 99.3567 200.203 99.3567 201.44V252.96C99.3567 254.197 98.3538 255.2 97.1167 255.2H94.8767C93.6396 255.2 92.6367 254.197 92.6367 252.96V201.44Z" fill="#1B1B1B"/>
<path d="M111.684 201.44C111.684 200.203 112.686 199.2 113.924 199.2H116.164C117.401 199.2 118.404 200.203 118.404 201.44V230.56C118.404 231.797 117.401 232.8 116.164 232.8H113.924C112.686 232.8 111.684 231.797 111.684 230.56V201.44Z" fill="#1B1B1B"/>
<path d="M45.5977 268.64C45.5977 267.403 46.6005 266.4 47.8377 266.4H144.158C145.395 266.4 146.398 267.403 146.398 268.64V277.6H45.5977V268.64Z" fill="#494949"/>
<path d="M0.804688 291.04C0.804688 289.803 1.80757 288.8 3.04469 288.8H188.965C190.202 288.8 191.205 289.803 191.205 291.04V325.76C191.205 326.997 190.202 328 188.965 328H3.0447C1.80758 328 0.804688 326.997 0.804688 325.76V291.04Z" fill="#323232"/>
<path d="M0.804688 291.04C0.804688 289.803 1.80757 288.8 3.04469 288.8H188.965C190.202 288.8 191.205 289.803 191.205 291.04V300C191.205 306.186 186.19 311.2 180.005 311.2H12.0047C5.8191 311.2 0.804688 306.186 0.804688 300V291.04Z" fill="#494949"/>
<path d="M45.5977 277.6L56.7977 277.6V288.8H45.5977V277.6Z" fill="#494949"/>
<path d="M135.195 277.6H146.395V288.8H135.195V277.6Z" fill="#494949"/>
<path d="M90.4023 307.84C90.4023 306.602 91.4052 305.6 92.6423 305.6H99.3624C100.599 305.6 101.602 306.602 101.602 307.84V314.56C101.602 315.797 100.599 316.8 99.3623 316.8H92.6423C91.4052 316.8 90.4023 315.797 90.4023 314.56V307.84Z" fill="#FDD86E"/>
<path d="M88.2404 5.43996C91.6891 -0.533375 100.311 -0.53337 103.76 5.43996L185.235 146.56C188.684 152.533 184.373 160 177.476 160H14.5243C7.62692 160 3.31604 152.533 6.76474 146.56L88.2404 5.43996Z" fill="url(#paint0_linear_592_2)"/>
<path d="M293.76 118V128.56H272.52C264.44 128.56 260.4 131.84 260.4 138.4C260.4 141.92 262.16 144.92 265.68 147.4C269.28 149.8 274.12 152.12 280.2 154.36C282.92 155.4 285.24 156.48 287.16 157.6C289.08 158.64 291 160.04 292.92 161.8C294.84 163.56 296.28 165.84 297.24 168.64C298.2 171.36 298.68 174.52 298.68 178.12C298.68 182.12 297.84 185.72 296.16 188.92C294.48 192.04 292.32 194.52 289.68 196.36C287.04 198.12 284.32 199.48 281.52 200.44C278.8 201.32 276.12 201.8 273.48 201.88C272.36 201.96 270.76 202 268.68 202H249.96V191.44H268.32C273.76 191.44 278.2 190.32 281.64 188.08C285.08 185.76 286.8 182.4 286.8 178C286.8 175.84 286.32 173.96 285.36 172.36C284.4 170.68 283 169.24 281.16 168.04C279.4 166.84 277.56 165.8 275.64 164.92C273.8 164.04 271.56 163.12 268.92 162.16C268.2 161.92 267.64 161.72 267.24 161.56C254.68 156.76 248.4 148.92 248.4 138.04C248.4 131.32 250.56 126.32 254.88 123.04C259.2 119.68 264.84 118 271.8 118H293.76Z" fill="#1B1B1B"/>
<path d="M304.669 154.48L326.149 133V144.4H342.349V154.48H326.149V179.2C326.149 182 326.589 184.32 327.469 186.16C328.429 188 329.789 189.32 331.549 190.12C333.309 190.84 334.949 191.32 336.469 191.56C338.069 191.8 340.029 191.92 342.349 191.92V202C333.149 202 326.349 200.24 321.949 196.72C317.549 193.2 315.349 187.36 315.349 179.2V154.48H304.669Z" fill="#1B1B1B"/>
<path d="M385.834 168.16V178.96C382.794 176.64 379.074 175.48 374.674 175.48C370.914 175.48 367.994 176.24 365.914 177.76C363.834 179.2 362.794 181.28 362.794 184C362.794 189.28 366.714 191.92 374.554 191.92H390.394V169C390.394 159.32 385.674 154.48 376.234 154.48H357.034V144.4H376.834C384.594 144.4 390.554 146.32 394.714 150.16C398.874 154 400.954 159.52 400.954 166.72V202H374.194C367.394 202 361.994 200.48 357.994 197.44C353.994 194.4 351.994 189.96 351.994 184.12C351.994 178.28 354.114 173.84 358.354 170.8C362.594 167.76 367.914 166.24 374.314 166.24C377.914 166.24 381.754 166.88 385.834 168.16Z" fill="#1B1B1B"/>
<path d="M412.345 202V169.24C412.345 160.04 414.065 153.68 417.505 150.16C419.185 148.4 421.225 147.08 423.625 146.2C426.025 145.32 428.105 144.8 429.865 144.64C431.705 144.48 434.185 144.4 437.305 144.4H447.865V154.48H435.145C433.545 154.48 432.305 154.52 431.425 154.6C430.545 154.68 429.505 154.96 428.305 155.44C427.105 155.92 426.065 156.68 425.185 157.72C423.665 159.64 422.905 163.48 422.905 169.24V202H412.345Z" fill="#1B1B1B"/>
<path d="M449.63 154.48L471.11 133V144.4H487.31V154.48H471.11V179.2C471.11 182 471.55 184.32 472.43 186.16C473.39 188 474.75 189.32 476.51 190.12C478.27 190.84 479.91 191.32 481.43 191.56C483.03 191.8 484.99 191.92 487.31 191.92V202C478.11 202 471.31 200.24 466.91 196.72C462.51 193.2 460.31 187.36 460.31 179.2V154.48H449.63Z" fill="#1B1B1B"/>
<path d="M547.235 118H558.515V175.6C558.515 185.12 556.035 192.12 551.075 196.6C546.195 201 538.795 203.2 528.875 203.2C518.955 203.2 511.555 201 506.675 196.6C501.795 192.12 499.355 185.12 499.355 175.6V118H510.635V177.16C510.635 182.6 512.275 186.56 515.555 189.04C518.915 191.44 523.315 192.64 528.755 192.64C534.355 192.64 538.835 191.44 542.195 189.04C545.555 186.56 547.235 182.6 547.235 177.16V118Z" fill="#1B1B1B"/>
<path d="M573.52 229.36V173.2C573.52 169.04 574.28 165.12 575.8 161.44C577.32 157.76 579.4 154.6 582.04 151.96C584.68 149.24 587.8 147.12 591.4 145.6C595 144 598.84 143.2 602.92 143.2C607 143.2 610.8 144 614.32 145.6C617.92 147.12 621.04 149.24 623.68 151.96C626.4 154.68 628.52 157.88 630.04 161.56C631.56 165.16 632.32 169.04 632.32 173.2C632.32 177.36 631.56 181.28 630.04 184.96C628.6 188.56 626.56 191.72 623.92 194.44C621.28 197.16 618.16 199.32 614.56 200.92C610.96 202.44 607.08 203.2 602.92 203.2C597.8 203.2 593.04 202 588.64 199.6V188.8C592.56 191.68 597.2 193.12 602.56 193.12C605.44 193.12 608.04 192.64 610.36 191.68C612.76 190.64 614.76 189.24 616.36 187.48C618.04 185.72 619.32 183.64 620.2 181.24C621.08 178.76 621.52 176.08 621.52 173.2C621.52 170.32 621.08 167.68 620.2 165.28C619.32 162.8 618.08 160.68 616.48 158.92C614.88 157.16 612.92 155.8 610.6 154.84C608.36 153.8 605.8 153.28 602.92 153.28C600.12 153.28 597.56 153.76 595.24 154.72C593 155.68 591.04 157.04 589.36 158.8C587.76 160.56 586.52 162.68 585.64 165.16C584.76 167.56 584.32 170.24 584.32 173.2V229.36H573.52Z" fill="#1B1B1B"/>
<path d="M692.528 191.44V202H675.008C671.728 202 669.128 201.96 667.208 201.88C665.368 201.72 663.047 201.24 660.247 200.44C657.447 199.56 655.087 198.28 653.167 196.6C650.207 193.88 648.287 190.64 647.407 186.88C646.527 183.04 646.088 178.56 646.088 173.44V118H657.367V173.2C657.367 177.84 657.887 181.48 658.927 184.12C661.007 189 665.368 191.44 672.008 191.44H692.528Z" fill="#358FBE"/>
<path d="M734.818 168.16V178.96C731.778 176.64 728.058 175.48 723.658 175.48C719.898 175.48 716.978 176.24 714.898 177.76C712.818 179.2 711.778 181.28 711.778 184C711.778 189.28 715.698 191.92 723.538 191.92H739.378V169C739.378 159.32 734.658 154.48 725.218 154.48H706.018V144.4H725.818C733.578 144.4 739.538 146.32 743.698 150.16C747.858 154 749.938 159.52 749.938 166.72V202H723.178C716.378 202 710.978 200.48 706.978 197.44C702.978 194.4 700.978 189.96 700.978 184.12C700.978 178.28 703.098 173.84 707.338 170.8C711.578 167.76 716.898 166.24 723.298 166.24C726.898 166.24 730.738 166.88 734.818 168.16Z" fill="#358FBE"/>
<path d="M763.13 118H773.93V173.2C773.93 179.52 775.53 184.44 778.73 187.96C782.01 191.4 786.49 193.12 792.17 193.12C798.09 193.12 802.73 191.44 806.09 188.08C809.45 184.64 811.13 179.68 811.13 173.2C811.13 167.04 809.29 162.2 805.61 158.68C802.01 155.08 797.25 153.28 791.33 153.28C786.29 153.28 781.93 154.72 778.25 157.6V146.8C782.65 144.4 787.41 143.2 792.53 143.2C801.01 143.2 808.01 145.96 813.53 151.48C819.13 156.92 821.93 164.16 821.93 173.2C821.93 182.72 819.01 190.12 813.17 195.4C807.41 200.6 800.13 203.2 791.33 203.2C782.93 203.2 776.13 200.48 770.93 195.04C765.73 189.6 763.13 182.32 763.13 173.2V118Z" fill="#358FBE"/>
<defs>
<linearGradient id="paint0_linear_592_2" x1="411.367" y1="0.959961" x2="411.367" y2="328" gradientUnits="userSpaceOnUse">
<stop stop-color="#42B3ED"/>
<stop offset="1" stop-color="#358FBE"/>
</linearGradient>
</defs>
</svg>
