<svg width="150" height="38" viewBox="0 0 150 38" fill="none" xmlns="http://www.w3.org/2000/svg">
<path d="M5.8619 29.3186C4.1628 29.3186 2.87785 28.8407 2.00706 27.885C1.13627 26.908 0.700879 25.5168 0.700879 23.7115V22.4372H4.01413V23.9664C4.01413 25.4106 4.61943 26.1328 5.83004 26.1328C6.42473 26.1328 6.87074 25.9629 7.16808 25.623C7.48666 25.262 7.64596 24.6885 7.64596 23.9027C7.64596 22.9682 7.43357 22.1505 7.00879 21.4496C6.58402 20.7275 5.79818 19.8673 4.65129 18.8691C3.20705 17.5948 2.19821 16.4479 1.62477 15.4284C1.05132 14.3877 0.764596 13.2196 0.764596 11.924C0.764596 10.1612 1.21061 8.80193 2.10264 7.84619C2.99467 6.86921 4.29023 6.38071 5.98933 6.38071C7.66719 6.38071 8.9309 6.86921 9.78045 7.84619C10.6512 8.80193 11.0866 10.1825 11.0866 11.9877V12.9116H7.77339V11.7647C7.77339 11.0001 7.62472 10.4479 7.32737 10.1081C7.03003 9.74706 6.59464 9.56653 6.02119 9.56653C4.85306 9.56653 4.26899 10.278 4.26899 11.701C4.26899 12.5081 4.48138 13.2621 4.90616 13.963C5.35217 14.6638 6.14862 15.5134 7.29552 16.5116C8.76099 17.7859 9.76983 18.9434 10.322 19.9841C10.8742 21.0248 11.1504 22.2461 11.1504 23.6478C11.1504 25.4744 10.6937 26.8761 9.78045 27.8531C8.88842 28.8301 7.58224 29.3186 5.8619 29.3186ZM15.8995 9.88511H12.2358V6.6993H23.0675V9.88511H19.4039V29H15.8995V9.88511ZM26.0099 6.6993H30.7568L34.3886 29H30.8842L30.2471 24.5717V24.6354H26.2648L25.6276 29H22.3781L26.0099 6.6993ZM29.8329 21.6089L28.2719 10.586H28.2082L26.679 21.6089H29.8329ZM36.0888 6.6993H41.2817C43.087 6.6993 44.4038 7.12407 45.2321 7.97362C46.0604 8.80193 46.4746 10.0869 46.4746 11.8285V13.1984C46.4746 15.5134 45.71 16.9789 44.1808 17.5948V17.6585C45.0303 17.9134 45.625 18.4337 45.9648 19.2195C46.3259 20.0054 46.5064 21.0567 46.5064 22.3735V26.2921C46.5064 26.9292 46.5277 27.4496 46.5701 27.8531C46.6126 28.2354 46.7188 28.6177 46.8887 29H43.3206C43.1932 28.6389 43.1082 28.2991 43.0657 27.9805C43.0233 27.662 43.002 27.0885 43.002 26.2602V22.1824C43.002 21.1629 42.8321 20.4514 42.4923 20.0479C42.1737 19.6443 41.6109 19.4426 40.8038 19.4426H39.5932V29H36.0888V6.6993ZM40.8675 16.2567C41.5684 16.2567 42.0888 16.0762 42.4286 15.7152C42.7896 15.3541 42.9702 14.7488 42.9702 13.8992V12.1789C42.9702 11.3718 42.8215 10.7878 42.5242 10.4267C42.248 10.0656 41.802 9.88511 41.1861 9.88511H39.5932V16.2567H40.8675ZM51.6154 9.88511H47.9517V6.6993H58.7835V9.88511H55.1198V29H51.6154V9.88511ZM65.5775 29.3186C63.8784 29.3186 62.5828 28.8407 61.6908 27.885C60.7988 26.908 60.3528 25.5168 60.3528 23.7115V6.6993H63.8572V23.9664C63.8572 24.731 64.0058 25.2832 64.3032 25.623C64.6218 25.9629 65.0678 26.1328 65.6412 26.1328C66.2147 26.1328 66.6501 25.9629 66.9474 25.623C67.266 25.2832 67.4253 24.731 67.4253 23.9664V6.6993H70.8022V23.7115C70.8022 25.5168 70.3562 26.908 69.4642 27.885C68.5722 28.8407 67.2766 29.3186 65.5775 29.3186ZM73.2981 6.6993H78.4591C80.2007 6.6993 81.5069 7.16655 82.3777 8.10106C83.2485 9.03556 83.6839 10.4055 83.6839 12.2108V14.409C83.6839 16.2143 83.2485 17.5842 82.3777 18.5187C81.5069 19.4532 80.2007 19.9204 78.4591 19.9204H76.8025V29H73.2981V6.6993ZM78.4591 16.7346C79.0326 16.7346 79.4574 16.5753 79.7335 16.2567C80.0308 15.9382 80.1795 15.3966 80.1795 14.632V11.9877C80.1795 11.2232 80.0308 10.6816 79.7335 10.363C79.4574 10.0444 79.0326 9.88511 78.4591 9.88511H76.8025V16.7346H78.4591Z" fill="#FFFAFA"/>
<path d="M84.611 29.1274C83.9738 29.1274 83.4323 29.085 82.9862 29V25.8142C83.3261 25.8991 83.7084 25.9416 84.1331 25.9416C84.834 25.9416 85.3544 25.7717 85.6942 25.4319C86.034 25.0708 86.2039 24.5292 86.2039 23.8071V6.6993H89.7083V23.7115C89.7083 25.5381 89.2835 26.8974 88.434 27.7894C87.6057 28.6814 86.3313 29.1274 84.611 29.1274ZM97.2794 29.3186C95.559 29.3186 94.2422 28.8301 93.3289 27.8531C92.4157 26.8761 91.959 25.4956 91.959 23.7115V11.9877C91.959 10.2037 92.4157 8.82317 93.3289 7.84619C94.2422 6.86921 95.559 6.38071 97.2794 6.38071C98.9997 6.38071 100.316 6.86921 101.23 7.84619C102.143 8.82317 102.6 10.2037 102.6 11.9877V23.7115C102.6 25.4956 102.143 26.8761 101.23 27.8531C100.316 28.8301 98.9997 29.3186 97.2794 29.3186ZM97.2794 26.1328C98.49 26.1328 99.0953 25.4 99.0953 23.9346V11.7647C99.0953 10.2993 98.49 9.56653 97.2794 9.56653C96.0687 9.56653 95.4634 10.2993 95.4634 11.7647V23.9346C95.4634 25.4 96.0687 26.1328 97.2794 26.1328ZM104.97 6.6993H110.258C112.063 6.6993 113.38 7.12407 114.208 7.97362C115.037 8.80193 115.451 10.0869 115.451 11.8285V12.7205C115.451 13.8674 115.26 14.8019 114.877 15.524C114.516 16.2461 113.954 16.7665 113.189 17.0851V17.1488C114.931 17.7435 115.801 19.2939 115.801 21.8001V23.7115C115.801 25.4319 115.345 26.7487 114.431 27.662C113.539 28.554 112.223 29 110.481 29H104.97V6.6993ZM109.844 15.7789C110.545 15.7789 111.065 15.5983 111.405 15.2373C111.766 14.8762 111.947 14.2709 111.947 13.4214V12.1789C111.947 11.3718 111.798 10.7878 111.501 10.4267C111.224 10.0656 110.778 9.88511 110.162 9.88511H108.474V15.7789H109.844ZM110.481 25.8142C111.097 25.8142 111.554 25.6549 111.851 25.3363C112.148 24.9965 112.297 24.423 112.297 23.616V21.6726C112.297 20.6532 112.116 19.9523 111.755 19.57C111.416 19.1665 110.842 18.9647 110.035 18.9647H108.474V25.8142H110.481ZM122.405 29.3186C120.706 29.3186 119.421 28.8407 118.551 27.885C117.68 26.908 117.244 25.5168 117.244 23.7115V22.4372H120.558V23.9664C120.558 25.4106 121.163 26.1328 122.374 26.1328C122.968 26.1328 123.414 25.9629 123.712 25.623C124.03 25.262 124.19 24.6885 124.19 23.9027C124.19 22.9682 123.977 22.1505 123.552 21.4496C123.128 20.7275 122.342 19.8673 121.195 18.8691C119.751 17.5948 118.742 16.4479 118.168 15.4284C117.595 14.3877 117.308 13.2196 117.308 11.924C117.308 10.1612 117.754 8.80193 118.646 7.84619C119.538 6.86921 120.834 6.38071 122.533 6.38071C124.211 6.38071 125.474 6.86921 126.324 7.84619C127.195 8.80193 127.63 10.1825 127.63 11.9877V12.9116H124.317V11.7647C124.317 11.0001 124.168 10.4479 123.871 10.1081C123.574 9.74706 123.138 9.56653 122.565 9.56653C121.397 9.56653 120.813 10.278 120.813 11.701C120.813 12.5081 121.025 13.2621 121.45 13.963C121.896 14.6638 122.692 15.5134 123.839 16.5116C125.305 17.7859 126.313 18.9434 126.866 19.9841C127.418 21.0248 127.694 22.2461 127.694 23.6478C127.694 25.4744 127.237 26.8761 126.324 27.8531C125.432 28.8301 124.126 29.3186 122.405 29.3186Z" fill="#42B3ED"/>
<path d="M134.679 18.0885C134.812 17.753 135.234 17.6461 135.51 17.8779L140.459 22.0305C140.736 22.2624 140.704 22.6968 140.396 22.8856L137.786 24.4893C137.592 24.6084 137.344 24.5901 137.169 24.4439L133.705 21.5368C133.531 21.3905 133.47 21.1492 133.553 20.9377L134.679 18.0885Z" fill="#FFAA5C"/>
<path d="M132.394 22.5066C132.488 22.3948 132.655 22.3802 132.767 22.474L132.969 22.6439C133.081 22.7377 133.095 22.9043 133.002 23.0161L130.794 25.6474C130.7 25.7592 130.533 25.7738 130.421 25.68L130.219 25.5101C130.107 25.4163 130.093 25.2497 130.186 25.1379L132.394 22.5066Z" fill="#FFAA5C"/>
<path d="M134.115 23.9501C134.208 23.8383 134.375 23.8237 134.487 23.9175L134.689 24.0874C134.801 24.1812 134.816 24.3478 134.722 24.4596L130.816 29.115C130.722 29.2268 130.555 29.2413 130.443 29.1475L130.241 28.9777C130.129 28.8839 130.114 28.7172 130.208 28.6055L134.115 23.9501Z" fill="#FFAA5C"/>
<path d="M135.835 25.3939C135.929 25.2821 136.096 25.2675 136.208 25.3613L136.41 25.5312C136.522 25.625 136.536 25.7916 136.442 25.9034L134.235 28.5347C134.141 28.6465 133.974 28.6611 133.862 28.5673L133.66 28.3974C133.548 28.3036 133.534 28.137 133.627 28.0252L135.835 25.3939Z" fill="#FFAA5C"/>
<path d="M148.578 5.9059C149.343 5.62764 150.122 6.28135 149.98 7.08259L146.643 26.0118C146.501 26.8131 145.546 27.1609 144.922 26.6379L130.198 14.2827C129.575 13.7598 129.752 12.7582 130.516 12.48L148.578 5.9059Z" fill="#FFAA5C"/>
<path d="M148.578 5.9059C149.343 5.62764 150.122 6.28135 149.98 7.08259L146.643 26.0118C146.501 26.8131 145.546 27.1609 144.922 26.6379L130.198 14.2827C129.575 13.7598 129.752 12.7582 130.516 12.48L148.578 5.9059Z" fill="#FFAA5C"/>
</svg>
