<svg width="12" height="14" viewBox="0 0 12 14" fill="none" xmlns="http://www.w3.org/2000/svg">
<path d="M2.88977 7.28427C2.96862 7.08476 3.21975 7.02113 3.38409 7.15902L6.32741 9.62877C6.49174 9.76666 6.47269 10.025 6.28991 10.1373L4.7374 11.0911C4.62213 11.1619 4.47449 11.151 4.37086 11.0641L2.31032 9.3351C2.20669 9.24814 2.17033 9.10463 2.22005 8.97882L2.88977 7.28427Z" fill="#FFAA5C"/>
<path d="M1.53087 9.91191C1.58666 9.84543 1.68578 9.83675 1.75226 9.89254L1.87264 9.99355C1.93913 10.0493 1.9478 10.1485 1.89201 10.2149L0.578874 11.7799C0.523088 11.8464 0.423968 11.855 0.357484 11.7992L0.237104 11.6982C0.17062 11.6425 0.161948 11.5433 0.217735 11.4768L1.53087 9.91191Z" fill="#FFAA5C"/>
<path d="M2.55399 10.7704C2.60978 10.7039 2.7089 10.6953 2.77538 10.751L2.89576 10.852C2.96225 10.9078 2.97092 11.007 2.91513 11.0734L0.591885 13.8422C0.536098 13.9087 0.436978 13.9173 0.370494 13.8615L0.250114 13.7605C0.18363 13.7047 0.174958 13.6056 0.230745 13.5391L2.55399 10.7704Z" fill="#FFAA5C"/>
<path d="M3.57735 11.6291C3.63313 11.5626 3.73225 11.5539 3.79874 11.6097L3.91912 11.7107C3.9856 11.7665 3.99427 11.8657 3.93849 11.9321L2.62535 13.4971C2.56956 13.5636 2.47044 13.5722 2.40396 13.5164L2.28358 13.4154C2.21709 13.3596 2.20842 13.2605 2.26421 13.194L3.57735 11.6291Z" fill="#FFAA5C"/>
<path d="M11.156 0.0387802C11.6107 -0.126717 12.0741 0.262074 11.9901 0.738603L10.005 11.9966C9.92094 12.4731 9.35257 12.68 8.98189 12.369L0.224723 5.02083C-0.145951 4.7098 -0.0409199 4.11414 0.413779 3.94864L11.156 0.0387802Z" fill="#FFAA5C"/>
<path d="M11.156 0.0387802C11.6107 -0.126717 12.0741 0.262074 11.9901 0.738603L10.005 11.9966C9.92094 12.4731 9.35257 12.68 8.98189 12.369L0.224723 5.02083C-0.145951 4.7098 -0.0409199 4.11414 0.413779 3.94864L11.156 0.0387802Z" fill="#FFAA5C"/>
</svg>
