<svg width="152" height="55" viewBox="0 0 152 55" fill="none" xmlns="http://www.w3.org/2000/svg">
<path d="M70.4392 46.9587V46.0397H70.8987C71.3276 46.0397 71.6646 45.9133 71.9096 45.6606C72.1547 45.4002 72.2772 45.0479 72.2772 44.6037V38.4003H73.1963V44.6037C73.1963 45.0862 73.1005 45.5036 72.9091 45.8559C72.7253 46.2082 72.461 46.48 72.1164 46.6715C71.7718 46.863 71.3659 46.9587 70.8987 46.9587H70.4392Z" fill="#FFFAFA"/>
<path d="M77.973 47.0965C77.391 47.0965 76.8625 46.9587 76.3877 46.683C75.9129 46.3996 75.5338 46.0167 75.2504 45.5342C74.9747 45.0441 74.8369 44.4888 74.8369 43.8685C74.8369 43.2558 74.9747 42.7082 75.2504 42.2257C75.5261 41.7432 75.8976 41.3641 76.3647 41.0884C76.8396 40.8051 77.3757 40.6634 77.973 40.6634C78.5704 40.6634 79.1027 40.8012 79.5698 41.0769C80.0447 41.3526 80.4161 41.7317 80.6841 42.2142C80.9598 42.6967 81.0977 43.2481 81.0977 43.8685C81.0977 44.4965 80.956 45.0555 80.6727 45.5457C80.3893 46.0282 80.0102 46.4073 79.5354 46.683C79.0682 46.9587 78.5474 47.0965 77.973 47.0965ZM77.973 46.235C78.3866 46.235 78.758 46.1316 79.0873 45.9248C79.4243 45.718 79.6885 45.4346 79.88 45.0747C80.0791 44.7147 80.1787 44.3127 80.1787 43.8685C80.1787 43.4243 80.0791 43.026 79.88 42.6737C79.6885 42.3215 79.4243 42.0419 79.0873 41.8351C78.758 41.6284 78.3866 41.525 77.973 41.525C77.5595 41.525 77.1842 41.6284 76.8472 41.8351C76.5179 42.0419 76.2537 42.3215 76.0546 42.6737C75.8554 43.026 75.7559 43.4243 75.7559 43.8685C75.7559 44.3127 75.8554 44.7147 76.0546 45.0747C76.2537 45.4346 76.5179 45.718 76.8472 45.9248C77.1842 46.1316 77.5595 46.235 77.973 46.235Z" fill="#FFFAFA"/>
<path d="M85.7304 47.0965C85.202 47.0965 84.7233 46.9778 84.2944 46.7404C83.8732 46.4953 83.5554 46.1507 83.341 45.7065L83.4788 45.5802V46.9587H82.6172V38.2624H83.4788V42.1798L83.341 41.9385C83.586 41.5479 83.9115 41.2378 84.3174 41.008C84.731 40.7783 85.202 40.6634 85.7304 40.6634C86.3125 40.6634 86.8294 40.8051 87.2813 41.0884C87.7408 41.3641 88.1007 41.7432 88.3611 42.2257C88.6292 42.7082 88.7632 43.2596 88.7632 43.88C88.7632 44.4926 88.6292 45.0441 88.3611 45.5342C88.1007 46.0167 87.7408 46.3996 87.2813 46.683C86.8294 46.9587 86.3125 47.0965 85.7304 47.0965ZM85.6845 46.235C86.098 46.235 86.4656 46.1316 86.7873 45.9248C87.1166 45.718 87.3732 45.4385 87.557 45.0862C87.7484 44.7262 87.8442 44.3242 87.8442 43.88C87.8442 43.4281 87.7484 43.026 87.557 42.6737C87.3732 42.3215 87.1166 42.0419 86.7873 41.8351C86.4656 41.6284 86.098 41.525 85.6845 41.525C85.2709 41.525 84.8956 41.6284 84.5587 41.8351C84.2294 42.0419 83.9651 42.3253 83.766 42.6852C83.5745 43.0375 83.4788 43.4358 83.4788 43.88C83.4788 44.3242 83.5745 44.7262 83.766 45.0862C83.9651 45.4385 84.2294 45.718 84.5587 45.9248C84.8956 46.1316 85.2709 46.235 85.6845 46.235Z" fill="#FFFAFA"/>
<path d="M92.3579 46.9587V38.4003H95.2988C95.8578 38.4003 96.348 38.5113 96.7692 38.7334C97.1904 38.9479 97.5159 39.2542 97.7457 39.6525C97.9831 40.043 98.1018 40.4987 98.1018 41.0195C98.1018 41.5403 97.9831 41.996 97.7457 42.3865C97.5159 42.7771 97.1904 43.0835 96.7692 43.3056C96.3556 43.52 95.8655 43.6272 95.2988 43.6272H93.2769V46.9587H92.3579ZM93.2769 42.7656H95.3447C95.7123 42.7656 96.034 42.6967 96.3097 42.5589C96.5854 42.4134 96.7998 42.2104 96.953 41.95C97.1062 41.682 97.1828 41.368 97.1828 41.008C97.1828 40.6481 97.1062 40.3379 96.953 40.0775C96.7998 39.8171 96.5854 39.618 96.3097 39.4801C96.034 39.3346 95.7123 39.2619 95.3447 39.2619H93.2769V42.7656Z" fill="#FFFAFA"/>
<path d="M102.272 47.0965C101.69 47.0965 101.162 46.9587 100.687 46.683C100.212 46.3996 99.8332 46.0167 99.5498 45.5342C99.2741 45.0441 99.1362 44.4888 99.1362 43.8685C99.1362 43.2558 99.2741 42.7082 99.5498 42.2257C99.8255 41.7432 100.197 41.3641 100.664 41.0884C101.139 40.8051 101.675 40.6634 102.272 40.6634C102.87 40.6634 103.402 40.8012 103.869 41.0769C104.344 41.3526 104.715 41.7317 104.984 42.2142C105.259 42.6967 105.397 43.2481 105.397 43.8685C105.397 44.4965 105.255 45.0555 104.972 45.5457C104.689 46.0282 104.31 46.4073 103.835 46.683C103.368 46.9587 102.847 47.0965 102.272 47.0965ZM102.272 46.235C102.686 46.235 103.057 46.1316 103.387 45.9248C103.724 45.718 103.988 45.4346 104.179 45.0747C104.378 44.7147 104.478 44.3127 104.478 43.8685C104.478 43.4243 104.378 43.026 104.179 42.6737C103.988 42.3215 103.724 42.0419 103.387 41.8351C103.057 41.6284 102.686 41.525 102.272 41.525C101.859 41.525 101.484 41.6284 101.147 41.8351C100.817 42.0419 100.553 42.3215 100.354 42.6737C100.155 43.026 100.055 43.4243 100.055 43.8685C100.055 44.3127 100.155 44.7147 100.354 45.0747C100.553 45.4346 100.817 45.718 101.147 45.9248C101.484 46.1316 101.859 46.235 102.272 46.235Z" fill="#FFFAFA"/>
<path d="M106.917 46.9587V40.8012H107.778V41.8122L107.663 41.6628C107.809 41.3718 108.027 41.142 108.318 40.9736C108.617 40.8051 108.977 40.7208 109.398 40.7208H109.789V41.5824H109.249C108.804 41.5824 108.448 41.7203 108.18 41.996C107.912 42.2717 107.778 42.6623 107.778 43.1677V46.9587H106.917Z" fill="#FFFAFA"/>
<path d="M113.153 47.0276C112.602 47.0276 112.177 46.8668 111.878 46.5451C111.579 46.2235 111.43 45.764 111.43 45.1666V41.6628H110.293V40.8012H110.58C110.84 40.8012 111.047 40.717 111.2 40.5485C111.353 40.3724 111.43 40.1541 111.43 39.8937V39.3767H112.292V40.8012H113.647V41.6628H112.292V45.1666C112.292 45.3734 112.322 45.5572 112.384 45.718C112.445 45.8712 112.548 45.9937 112.694 46.0856C112.847 46.1775 113.05 46.2235 113.303 46.2235C113.364 46.2235 113.437 46.2196 113.521 46.212C113.605 46.2043 113.678 46.1967 113.739 46.189V46.9587C113.647 46.9817 113.544 46.997 113.429 47.0046C113.314 47.02 113.222 47.0276 113.153 47.0276Z" fill="#FFFAFA"/>
<path d="M116.92 47.0965C116.53 47.0965 116.181 47.0238 115.875 46.8783C115.569 46.7251 115.327 46.5183 115.151 46.2579C114.975 45.9975 114.887 45.6989 114.887 45.3619C114.887 45.0402 114.956 44.7492 115.094 44.4888C115.232 44.2208 115.446 43.9948 115.737 43.811C116.028 43.6272 116.4 43.497 116.851 43.4205L119.264 43.0184V43.7995L117.058 44.1672C116.614 44.2437 116.292 44.3854 116.093 44.5922C115.902 44.799 115.806 45.0441 115.806 45.3274C115.806 45.6031 115.913 45.8367 116.128 46.0282C116.35 46.2196 116.633 46.3154 116.978 46.3154C117.399 46.3154 117.767 46.2273 118.081 46.0512C118.395 45.8673 118.64 45.6223 118.816 45.3159C118.992 45.0096 119.08 44.6688 119.08 44.2935V42.7312C119.08 42.3636 118.946 42.0649 118.678 41.8351C118.41 41.6054 118.062 41.4905 117.633 41.4905C117.257 41.4905 116.928 41.5862 116.645 41.7777C116.361 41.9615 116.151 42.2027 116.013 42.5014L115.232 42.0764C115.347 41.816 115.527 41.5786 115.772 41.3641C116.024 41.1497 116.312 40.9812 116.633 40.8587C116.955 40.7285 117.288 40.6634 117.633 40.6634C118.084 40.6634 118.483 40.7515 118.827 40.9276C119.18 41.1037 119.452 41.3488 119.643 41.6628C119.842 41.9692 119.942 42.3253 119.942 42.7312V46.9587H119.08V45.7295L119.206 45.8559C119.099 46.0856 118.931 46.2962 118.701 46.4877C118.479 46.6715 118.215 46.8208 117.908 46.9357C117.61 47.0429 117.28 47.0965 116.92 47.0965Z" fill="#FFFAFA"/>
<path d="M121.714 46.9587V38.2624H122.575V46.9587H121.714Z" fill="#FFFAFA"/>
<path d="M50.4236 14.7929V16.8147H46.357C44.8099 16.8147 44.0364 17.4427 44.0364 18.6987C44.0364 19.3727 44.3734 19.9471 45.0474 20.4219C45.7366 20.8814 46.6633 21.3256 47.8274 21.7545C48.3482 21.9536 48.7924 22.1604 49.16 22.3748C49.5276 22.5739 49.8952 22.842 50.2628 23.179C50.6304 23.5159 50.9061 23.9525 51.0899 24.4886C51.2737 25.0094 51.3656 25.6144 51.3656 26.3036C51.3656 27.0695 51.2048 27.7588 50.8831 28.3714C50.5615 28.9688 50.1479 29.4436 49.6425 29.7959C49.137 30.1329 48.6162 30.3933 48.0801 30.5771C47.5593 30.7456 47.0462 30.8375 46.5408 30.8528C46.3263 30.8681 46.02 30.8758 45.6217 30.8758H42.0376V28.8539H45.5528C46.5944 28.8539 47.4445 28.6395 48.1031 28.2106C48.7617 27.7664 49.0911 27.1231 49.0911 26.2807C49.0911 25.8671 48.9991 25.5072 48.8153 25.2008C48.6315 24.8792 48.3635 24.6035 48.0112 24.3737C47.6742 24.1439 47.3219 23.9448 46.9543 23.7763C46.602 23.6078 46.1732 23.4317 45.6677 23.2479C45.5298 23.2019 45.4226 23.1637 45.346 23.133C42.9413 22.214 41.7389 20.7129 41.7389 18.6298C41.7389 17.3432 42.1524 16.3859 42.9795 15.7579C43.8067 15.1145 44.8865 14.7929 46.2191 14.7929H50.4236Z" fill="#FFFAFA"/>
<path d="M52.5123 21.7775L56.6249 17.6648V19.8475H59.7266V21.7775H56.6249V26.5104C56.6249 27.0465 56.7091 27.4907 56.8776 27.843C57.0614 28.1953 57.3218 28.448 57.6588 28.6012C57.9958 28.7391 58.3098 28.831 58.6008 28.8769C58.9071 28.9229 59.2824 28.9458 59.7266 28.9458V30.8758C57.9651 30.8758 56.6632 30.5388 55.8207 29.8649C54.9783 29.1909 54.5571 28.0728 54.5571 26.5104V21.7775H52.5123Z" fill="#FFFAFA"/>
<path d="M68.0524 24.3967V26.4645C67.4703 26.0203 66.7581 25.7982 65.9156 25.7982C65.1957 25.7982 64.6367 25.9437 64.2384 26.2347C63.8402 26.5104 63.6411 26.9087 63.6411 27.4294C63.6411 28.4404 64.3916 28.9458 65.8927 28.9458H68.9254V24.5575C68.9254 22.7041 68.0217 21.7775 66.2143 21.7775H62.5382V19.8475H66.3292C67.8149 19.8475 68.9561 20.2151 69.7526 20.9503C70.549 21.6856 70.9473 22.7424 70.9473 24.121V30.8758H65.8237C64.5218 30.8758 63.4879 30.5848 62.722 30.0027C61.9562 29.4207 61.5732 28.5706 61.5732 27.4524C61.5732 26.3343 61.9792 25.4842 62.791 24.9021C63.6028 24.3201 64.6213 24.0291 65.8467 24.0291C66.536 24.0291 67.2712 24.1516 68.0524 24.3967Z" fill="#FFFAFA"/>
<path d="M73.1283 30.8758V24.6035C73.1283 22.842 73.4577 21.6243 74.1163 20.9503C74.438 20.6134 74.8285 20.3606 75.2881 20.1921C75.7476 20.0237 76.1458 19.9241 76.4828 19.8935C76.8351 19.8628 77.3099 19.8475 77.9073 19.8475H79.9291V21.7775H77.4937C77.1874 21.7775 76.95 21.7851 76.7815 21.8004C76.613 21.8158 76.4139 21.8694 76.1841 21.9613C75.9543 22.0532 75.7552 22.1987 75.5867 22.3978C75.2957 22.7654 75.1502 23.5006 75.1502 24.6035V30.8758H73.1283Z" fill="#FFFAFA"/>
<path d="M80.2669 21.7775L84.3796 17.6648V19.8475H87.4813V21.7775H84.3796V26.5104C84.3796 27.0465 84.4638 27.4907 84.6323 27.843C84.8161 28.1953 85.0765 28.448 85.4135 28.6012C85.7504 28.7391 86.0644 28.831 86.3555 28.8769C86.6618 28.9229 87.0371 28.9458 87.4813 28.9458V30.8758C85.7198 30.8758 84.4179 30.5388 83.5754 29.8649C82.733 29.1909 82.3118 28.0728 82.3118 26.5104V21.7775H80.2669Z" fill="#FFFAFA"/>
<path d="M98.9547 14.7929H101.114V25.8212C101.114 27.6439 100.64 28.9841 99.6899 29.8419C98.7556 30.6843 97.3387 31.1055 95.4394 31.1055C93.5401 31.1055 92.1233 30.6843 91.1889 29.8419C90.2546 28.9841 89.7874 27.6439 89.7874 25.8212V14.7929H91.9471V26.1198C91.9471 27.1614 92.2611 27.9196 92.8891 28.3944C93.5325 28.8539 94.3749 29.0837 95.4165 29.0837C96.4886 29.0837 97.3464 28.8539 97.9897 28.3944C98.633 27.9196 98.9547 27.1614 98.9547 26.1198V14.7929Z" fill="#FFFAFA"/>
<path d="M103.987 36.1142V25.3616C103.987 24.5652 104.133 23.8146 104.424 23.11C104.715 22.4055 105.113 21.8004 105.619 21.295C106.124 20.7742 106.722 20.3683 107.411 20.0773C108.1 19.7709 108.835 19.6178 109.616 19.6178C110.398 19.6178 111.125 19.7709 111.799 20.0773C112.488 20.3683 113.086 20.7742 113.591 21.295C114.112 21.8158 114.518 22.4284 114.809 23.133C115.1 23.8223 115.245 24.5652 115.245 25.3616C115.245 26.1581 115.1 26.9087 114.809 27.6133C114.533 28.3025 114.143 28.9075 113.637 29.4283C113.132 29.9491 112.534 30.3627 111.845 30.669C111.156 30.96 110.413 31.1055 109.616 31.1055C108.636 31.1055 107.725 30.8758 106.882 30.4163V28.3485C107.633 28.8999 108.521 29.1756 109.548 29.1756C110.099 29.1756 110.597 29.0837 111.041 28.8999C111.5 28.7008 111.883 28.4327 112.19 28.0957C112.511 27.7588 112.756 27.3605 112.925 26.901C113.093 26.4262 113.178 25.9131 113.178 25.3616C113.178 24.8102 113.093 24.3048 112.925 23.8453C112.756 23.3704 112.519 22.9645 112.213 22.6276C111.906 22.2906 111.531 22.0302 111.087 21.8464C110.658 21.6473 110.168 21.5477 109.616 21.5477C109.08 21.5477 108.59 21.6396 108.146 21.8234C107.717 22.0072 107.342 22.2676 107.02 22.6046C106.714 22.9416 106.476 23.3475 106.308 23.8223C106.139 24.2818 106.055 24.7949 106.055 25.3616V36.1142H103.987Z" fill="#FFFAFA"/>
<path d="M126.773 28.8539V30.8758H123.418C122.79 30.8758 122.293 30.8681 121.925 30.8528C121.573 30.8222 121.129 30.7303 120.592 30.5771C120.056 30.4086 119.605 30.1635 119.237 29.8419C118.67 29.3211 118.303 28.7008 118.134 27.9809C117.966 27.2456 117.881 26.3879 117.881 25.4076V14.7929H120.041V25.3616C120.041 26.25 120.141 26.947 120.34 27.4524C120.738 28.3868 121.573 28.8539 122.844 28.8539H126.773Z" fill="#42B3ED"/>
<path d="M134.87 24.3967V26.4645C134.288 26.0203 133.576 25.7982 132.733 25.7982C132.013 25.7982 131.454 25.9437 131.056 26.2347C130.658 26.5104 130.459 26.9087 130.459 27.4294C130.459 28.4404 131.209 28.9458 132.71 28.9458H135.743V24.5575C135.743 22.7041 134.839 21.7775 133.032 21.7775H129.356V19.8475H133.147C134.633 19.8475 135.774 20.2151 136.57 20.9503C137.367 21.6856 137.765 22.7424 137.765 24.121V30.8758H132.641C131.339 30.8758 130.306 30.5848 129.54 30.0027C128.774 29.4207 128.391 28.5706 128.391 27.4524C128.391 26.3343 128.797 25.4842 129.609 24.9021C130.42 24.3201 131.439 24.0291 132.664 24.0291C133.354 24.0291 134.089 24.1516 134.87 24.3967Z" fill="#42B3ED"/>
<path d="M140.291 14.7929H142.358V25.3616C142.358 26.5717 142.665 27.5137 143.277 28.1876C143.905 28.8463 144.763 29.1756 145.851 29.1756C146.984 29.1756 147.873 28.8539 148.516 28.2106C149.159 27.552 149.481 26.6023 149.481 25.3616C149.481 24.1822 149.129 23.2556 148.424 22.5816C147.735 21.8923 146.823 21.5477 145.69 21.5477C144.725 21.5477 143.89 21.8234 143.186 22.3748V20.307C144.028 19.8475 144.939 19.6178 145.92 19.6178C147.543 19.6178 148.883 20.1462 149.94 21.2031C151.013 22.2446 151.549 23.6308 151.549 25.3616C151.549 27.1844 150.99 28.6012 149.871 29.6121C148.769 30.6077 147.375 31.1055 145.69 31.1055C144.082 31.1055 142.78 30.5848 141.784 29.5432C140.788 28.5016 140.291 27.1078 140.291 25.3616V14.7929Z" fill="#42B3ED"/>
<path d="M10.5305 26.3455C10.3706 25.8658 10.7276 25.3705 11.2332 25.3705H20.2889C20.7945 25.3705 21.1515 25.8658 20.9916 26.3455L19.6336 30.4195C19.5328 30.722 19.2497 30.926 18.9309 30.926H12.5912C12.2724 30.926 11.9893 30.722 11.8885 30.4195L10.5305 26.3455Z" fill="#358FBE"/>
<path d="M12.058 33.1483C12.058 32.9437 12.2239 32.7779 12.4284 32.7779H12.7988C13.0033 32.7779 13.1692 32.9437 13.1692 33.1483V37.9631C13.1692 38.1676 13.0033 38.3335 12.7988 38.3335H12.4284C12.2239 38.3335 12.058 38.1676 12.058 37.9631V33.1483Z" fill="#FFFAFA"/>
<path d="M15.206 33.1483C15.206 32.9437 15.3718 32.7779 15.5763 32.7779H15.9467C16.1513 32.7779 16.3171 32.9437 16.3171 33.1483V41.6668C16.3171 41.8714 16.1513 42.0372 15.9467 42.0372H15.5763C15.3718 42.0372 15.206 41.8714 15.206 41.6668V33.1483Z" fill="#FFFAFA"/>
<path d="M18.3539 33.1483C18.3539 32.9437 18.5197 32.7779 18.7243 32.7779H19.0946C19.2992 32.7779 19.465 32.9437 19.465 33.1483V37.9631C19.465 38.1676 19.2992 38.3335 19.0946 38.3335H18.7243C18.5197 38.3335 18.3539 38.1676 18.3539 37.9631V33.1483Z" fill="#FFFAFA"/>
<path d="M7.42778 44.6298C7.42778 44.2207 7.75942 43.889 8.16852 43.889H23.3537C23.7628 43.889 24.0945 44.2207 24.0945 44.6298V45.7409H7.42778V44.6298Z" fill="#494949"/>
<path d="M0.761719 48.3335C0.761719 47.9244 1.09336 47.5927 1.50246 47.5927H30.0211C30.4302 47.5927 30.7618 47.9244 30.7618 48.3335V54.2594C30.7618 54.6685 30.4302 55.0002 30.0211 55.0002H1.50246C1.09336 55.0002 0.761719 54.6685 0.761719 54.2594V48.3335Z" fill="#323232"/>
<path d="M0.761719 48.3335C0.761719 47.9244 1.09336 47.5927 1.50246 47.5927H30.0211C30.4302 47.5927 30.7618 47.9244 30.7618 48.3335V49.4446C30.7618 50.4673 29.9327 51.2964 28.9099 51.2964H2.61358C1.59082 51.2964 0.761719 50.4673 0.761719 49.4446V48.3335Z" fill="#494949"/>
<path d="M7.42778 45.7409L9.27963 45.7408V47.5927H7.42778V45.7409Z" fill="#494949"/>
<path d="M22.243 45.7408H24.0948V47.5927H22.243V45.7408Z" fill="#494949"/>
<path d="M14.8358 50.7409C14.8358 50.5363 15.0016 50.3705 15.2061 50.3705H16.3172C16.5218 50.3705 16.6876 50.5363 16.6876 50.7409V51.852C16.6876 52.0566 16.5218 52.2224 16.3172 52.2224H15.2061C15.0016 52.2224 14.8358 52.0566 14.8358 51.852V50.7409Z" fill="#FDD86E"/>
<path d="M14.4784 0.740742C15.0486 -0.246915 16.4742 -0.246913 17.0444 0.740744L30.5159 24.0741C31.0862 25.0618 30.3734 26.2964 29.2329 26.2964H2.28986C1.14941 26.2964 0.436633 25.0618 1.00686 24.0741L14.4784 0.740742Z" fill="url(#paint0_linear_596_94)"/>
<defs>
<linearGradient id="paint0_linear_596_94" x1="15.7614" y1="-1.4815" x2="15.7614" y2="35.5556" gradientUnits="userSpaceOnUse">
<stop stop-color="#42B3ED"/>
<stop offset="1" stop-color="#358FBE"/>
</linearGradient>
</defs>
</svg>
