<svg width="152" height="55" viewBox="0 0 152 55" fill="none" xmlns="http://www.w3.org/2000/svg">
<path d="M70.4372 46.9587V46.0397H70.8968C71.3256 46.0397 71.6626 45.9133 71.9077 45.6606C72.1527 45.4002 72.2753 45.0479 72.2753 44.6037V38.4003H73.1943V44.6037C73.1943 45.0862 73.0986 45.5036 72.9071 45.8559C72.7233 46.2082 72.4591 46.48 72.1145 46.6715C71.7698 46.863 71.3639 46.9587 70.8968 46.9587H70.4372Z" fill="#286B8E"/>
<path d="M77.9711 47.0965C77.389 47.0965 76.8606 46.9587 76.3858 46.683C75.9109 46.3996 75.5318 46.0167 75.2485 45.5342C74.9728 45.0441 74.8349 44.4888 74.8349 43.8685C74.8349 43.2558 74.9728 42.7082 75.2485 42.2257C75.5242 41.7432 75.8956 41.3641 76.3628 41.0884C76.8376 40.8051 77.3737 40.6634 77.9711 40.6634C78.5684 40.6634 79.1007 40.8012 79.5679 41.0769C80.0427 41.3526 80.4141 41.7317 80.6822 42.2142C80.9579 42.6967 81.0957 43.2481 81.0957 43.8685C81.0957 44.4965 80.9541 45.0555 80.6707 45.5457C80.3873 46.0282 80.0082 46.4073 79.5334 46.683C79.0662 46.9587 78.5455 47.0965 77.9711 47.0965ZM77.9711 46.235C78.3846 46.235 78.7561 46.1316 79.0854 45.9248C79.4224 45.718 79.6866 45.4346 79.878 45.0747C80.0772 44.7147 80.1767 44.3127 80.1767 43.8685C80.1767 43.4243 80.0772 43.026 79.878 42.6737C79.6866 42.3215 79.4224 42.0419 79.0854 41.8351C78.7561 41.6284 78.3846 41.525 77.9711 41.525C77.5575 41.525 77.1822 41.6284 76.8453 41.8351C76.5159 42.0419 76.2517 42.3215 76.0526 42.6737C75.8535 43.026 75.7539 43.4243 75.7539 43.8685C75.7539 44.3127 75.8535 44.7147 76.0526 45.0747C76.2517 45.4346 76.5159 45.718 76.8453 45.9248C77.1822 46.1316 77.5575 46.235 77.9711 46.235Z" fill="#286B8E"/>
<path d="M85.7285 47.0965C85.2 47.0965 84.7214 46.9778 84.2925 46.7404C83.8713 46.4953 83.5534 46.1507 83.339 45.7065L83.4769 45.5802V46.9587H82.6153V38.2624H83.4769V42.1798L83.339 41.9385C83.5841 41.5479 83.9096 41.2378 84.3155 41.008C84.729 40.7783 85.2 40.6634 85.7285 40.6634C86.3105 40.6634 86.8275 40.8051 87.2793 41.0884C87.7388 41.3641 88.0988 41.7432 88.3592 42.2257C88.6272 42.7082 88.7612 43.2596 88.7612 43.88C88.7612 44.4926 88.6272 45.0441 88.3592 45.5342C88.0988 46.0167 87.7388 46.3996 87.2793 46.683C86.8275 46.9587 86.3105 47.0965 85.7285 47.0965ZM85.6825 46.235C86.0961 46.235 86.4637 46.1316 86.7853 45.9248C87.1147 45.718 87.3712 45.4385 87.555 45.0862C87.7465 44.7262 87.8422 44.3242 87.8422 43.88C87.8422 43.4281 87.7465 43.026 87.555 42.6737C87.3712 42.3215 87.1147 42.0419 86.7853 41.8351C86.4637 41.6284 86.0961 41.525 85.6825 41.525C85.269 41.525 84.8937 41.6284 84.5567 41.8351C84.2274 42.0419 83.9632 42.3253 83.7641 42.6852C83.5726 43.0375 83.4769 43.4358 83.4769 43.88C83.4769 44.3242 83.5726 44.7262 83.7641 45.0862C83.9632 45.4385 84.2274 45.718 84.5567 45.9248C84.8937 46.1316 85.269 46.235 85.6825 46.235Z" fill="#286B8E"/>
<path d="M92.3559 46.9587V38.4003H95.2968C95.8559 38.4003 96.346 38.5113 96.7672 38.7334C97.1885 38.9479 97.514 39.2542 97.7437 39.6525C97.9811 40.043 98.0998 40.4987 98.0998 41.0195C98.0998 41.5403 97.9811 41.996 97.7437 42.3865C97.514 42.7771 97.1885 43.0835 96.7672 43.3056C96.3537 43.52 95.8635 43.6272 95.2968 43.6272H93.275V46.9587H92.3559ZM93.275 42.7656H95.3428C95.7104 42.7656 96.032 42.6967 96.3077 42.5589C96.5834 42.4134 96.7979 42.2104 96.9511 41.95C97.1042 41.682 97.1808 41.368 97.1808 41.008C97.1808 40.6481 97.1042 40.3379 96.9511 40.0775C96.7979 39.8171 96.5834 39.618 96.3077 39.4801C96.032 39.3346 95.7104 39.2619 95.3428 39.2619H93.275V42.7656Z" fill="#286B8E"/>
<path d="M102.27 47.0965C101.688 47.0965 101.16 46.9587 100.685 46.683C100.21 46.3996 99.8312 46.0167 99.5478 45.5342C99.2721 45.0441 99.1343 44.4888 99.1343 43.8685C99.1343 43.2558 99.2721 42.7082 99.5478 42.2257C99.8235 41.7432 100.195 41.3641 100.662 41.0884C101.137 40.8051 101.673 40.6634 102.27 40.6634C102.868 40.6634 103.4 40.8012 103.867 41.0769C104.342 41.3526 104.714 41.7317 104.982 42.2142C105.257 42.6967 105.395 43.2481 105.395 43.8685C105.395 44.4965 105.253 45.0555 104.97 45.5457C104.687 46.0282 104.308 46.4073 103.833 46.683C103.366 46.9587 102.845 47.0965 102.27 47.0965ZM102.27 46.235C102.684 46.235 103.055 46.1316 103.385 45.9248C103.722 45.718 103.986 45.4346 104.177 45.0747C104.377 44.7147 104.476 44.3127 104.476 43.8685C104.476 43.4243 104.377 43.026 104.177 42.6737C103.986 42.3215 103.722 42.0419 103.385 41.8351C103.055 41.6284 102.684 41.525 102.27 41.525C101.857 41.525 101.482 41.6284 101.145 41.8351C100.815 42.0419 100.551 42.3215 100.352 42.6737C100.153 43.026 100.053 43.4243 100.053 43.8685C100.053 44.3127 100.153 44.7147 100.352 45.0747C100.551 45.4346 100.815 45.718 101.145 45.9248C101.482 46.1316 101.857 46.235 102.27 46.235Z" fill="#286B8E"/>
<path d="M106.915 46.9587V40.8012H107.776V41.8122L107.661 41.6628C107.807 41.3718 108.025 41.142 108.316 40.9736C108.615 40.8051 108.975 40.7208 109.396 40.7208H109.787V41.5824H109.247C108.802 41.5824 108.446 41.7203 108.178 41.996C107.91 42.2717 107.776 42.6623 107.776 43.1677V46.9587H106.915Z" fill="#286B8E"/>
<path d="M113.151 47.0276C112.6 47.0276 112.175 46.8668 111.876 46.5451C111.577 46.2235 111.428 45.764 111.428 45.1666V41.6628H110.291V40.8012H110.578C110.838 40.8012 111.045 40.717 111.198 40.5485C111.351 40.3724 111.428 40.1541 111.428 39.8937V39.3767H112.29V40.8012H113.645V41.6628H112.29V45.1666C112.29 45.3734 112.32 45.5572 112.382 45.718C112.443 45.8712 112.546 45.9937 112.692 46.0856C112.845 46.1775 113.048 46.2235 113.301 46.2235C113.362 46.2235 113.435 46.2196 113.519 46.212C113.603 46.2043 113.676 46.1967 113.737 46.189V46.9587C113.645 46.9817 113.542 46.997 113.427 47.0046C113.312 47.02 113.22 47.0276 113.151 47.0276Z" fill="#286B8E"/>
<path d="M116.918 47.0965C116.528 47.0965 116.179 47.0238 115.873 46.8783C115.567 46.7251 115.325 46.5183 115.149 46.2579C114.973 45.9975 114.885 45.6989 114.885 45.3619C114.885 45.0402 114.954 44.7492 115.092 44.4888C115.23 44.2208 115.444 43.9948 115.735 43.811C116.026 43.6272 116.398 43.497 116.85 43.4205L119.262 43.0184V43.7995L117.056 44.1672C116.612 44.2437 116.29 44.3854 116.091 44.5922C115.9 44.799 115.804 45.0441 115.804 45.3274C115.804 45.6031 115.911 45.8367 116.126 46.0282C116.348 46.2196 116.631 46.3154 116.976 46.3154C117.397 46.3154 117.765 46.2273 118.079 46.0512C118.393 45.8673 118.638 45.6223 118.814 45.3159C118.99 45.0096 119.078 44.6688 119.078 44.2935V42.7312C119.078 42.3636 118.944 42.0649 118.676 41.8351C118.408 41.6054 118.06 41.4905 117.631 41.4905C117.255 41.4905 116.926 41.5862 116.643 41.7777C116.359 41.9615 116.149 42.2027 116.011 42.5014L115.23 42.0764C115.345 41.816 115.525 41.5786 115.77 41.3641C116.022 41.1497 116.31 40.9812 116.631 40.8587C116.953 40.7285 117.286 40.6634 117.631 40.6634C118.083 40.6634 118.481 40.7515 118.825 40.9276C119.178 41.1037 119.45 41.3488 119.641 41.6628C119.84 41.9692 119.94 42.3253 119.94 42.7312V46.9587H119.078V45.7295L119.205 45.8559C119.097 46.0856 118.929 46.2962 118.699 46.4877C118.477 46.6715 118.213 46.8208 117.906 46.9357C117.608 47.0429 117.278 47.0965 116.918 47.0965Z" fill="#286B8E"/>
<path d="M121.712 46.9587V38.2624H122.573V46.9587H121.712Z" fill="#286B8E"/>
<path d="M50.4217 14.7929V16.8147H46.355C44.808 16.8147 44.0345 17.4427 44.0345 18.6987C44.0345 19.3727 44.3714 19.9471 45.0454 20.4219C45.7347 20.8814 46.6613 21.3256 47.8254 21.7545C48.3462 21.9536 48.7904 22.1604 49.158 22.3748C49.5256 22.5739 49.8932 22.842 50.2609 23.179C50.6285 23.5159 50.9042 23.9525 51.088 24.4886C51.2718 25.0094 51.3637 25.6144 51.3637 26.3036C51.3637 27.0695 51.2029 27.7588 50.8812 28.3714C50.5595 28.9688 50.146 29.4436 49.6405 29.7959C49.1351 30.1329 48.6143 30.3933 48.0782 30.5771C47.5574 30.7456 47.0443 30.8375 46.5388 30.8528C46.3244 30.8681 46.018 30.8758 45.6198 30.8758H42.0356V28.8539H45.5509C46.5924 28.8539 47.4425 28.6395 48.1011 28.2106C48.7598 27.7664 49.0891 27.1231 49.0891 26.2807C49.0891 25.8671 48.9972 25.5072 48.8134 25.2008C48.6296 24.8792 48.3615 24.6035 48.0092 24.3737C47.6723 24.1439 47.32 23.9448 46.9524 23.7763C46.6001 23.6078 46.1712 23.4317 45.6657 23.2479C45.5279 23.2019 45.4207 23.1637 45.3441 23.133C42.9393 22.214 41.7369 20.7129 41.7369 18.6298C41.7369 17.3432 42.1505 16.3859 42.9776 15.7579C43.8047 15.1145 44.8846 14.7929 46.2172 14.7929H50.4217Z" fill="#286B8E"/>
<path d="M52.5103 21.7775L56.6229 17.6648V19.8475H59.7246V21.7775H56.6229V26.5104C56.6229 27.0465 56.7072 27.4907 56.8757 27.843C57.0595 28.1953 57.3199 28.448 57.6568 28.6012C57.9938 28.7391 58.3078 28.831 58.5988 28.8769C58.9052 28.9229 59.2804 28.9458 59.7246 28.9458V30.8758C57.9632 30.8758 56.6612 30.5388 55.8188 29.8649C54.9764 29.1909 54.5551 28.0728 54.5551 26.5104V21.7775H52.5103Z" fill="#286B8E"/>
<path d="M68.0504 24.3967V26.4645C67.4684 26.0203 66.7561 25.7982 65.9137 25.7982C65.1938 25.7982 64.6347 25.9437 64.2365 26.2347C63.8382 26.5104 63.6391 26.9087 63.6391 27.4294C63.6391 28.4404 64.3896 28.9458 65.8907 28.9458H68.9235V24.5575C68.9235 22.7041 68.0198 21.7775 66.2124 21.7775H62.5363V19.8475H66.3272C67.813 19.8475 68.9541 20.2151 69.7506 20.9503C70.5471 21.6856 70.9453 22.7424 70.9453 24.121V30.8758H65.8218C64.5198 30.8758 63.4859 30.5848 62.7201 30.0027C61.9542 29.4207 61.5713 28.5706 61.5713 27.4524C61.5713 26.3343 61.9772 25.4842 62.789 24.9021C63.6008 24.3201 64.6194 24.0291 65.8448 24.0291C66.534 24.0291 67.2692 24.1516 68.0504 24.3967Z" fill="#286B8E"/>
<path d="M73.1264 30.8758V24.6035C73.1264 22.842 73.4557 21.6243 74.1143 20.9503C74.436 20.6134 74.8266 20.3606 75.2861 20.1921C75.7456 20.0237 76.1439 19.9241 76.4808 19.8935C76.8331 19.8628 77.308 19.8475 77.9053 19.8475H79.9272V21.7775H77.4918C77.1854 21.7775 76.948 21.7851 76.7795 21.8004C76.611 21.8158 76.4119 21.8694 76.1821 21.9613C75.9524 22.0532 75.7533 22.1987 75.5848 22.3978C75.2938 22.7654 75.1482 23.5006 75.1482 24.6035V30.8758H73.1264Z" fill="#286B8E"/>
<path d="M80.265 21.7775L84.3776 17.6648V19.8475H87.4793V21.7775H84.3776V26.5104C84.3776 27.0465 84.4619 27.4907 84.6303 27.843C84.8141 28.1953 85.0745 28.448 85.4115 28.6012C85.7485 28.7391 86.0625 28.831 86.3535 28.8769C86.6598 28.9229 87.0351 28.9458 87.4793 28.9458V30.8758C85.7178 30.8758 84.4159 30.5388 83.5735 29.8649C82.731 29.1909 82.3098 28.0728 82.3098 26.5104V21.7775H80.265Z" fill="#286B8E"/>
<path d="M98.9527 14.7929H101.112V25.8212C101.112 27.6439 100.638 28.9841 99.688 29.8419C98.7536 30.6843 97.3368 31.1055 95.4375 31.1055C93.5382 31.1055 92.1213 30.6843 91.187 29.8419C90.2527 28.9841 89.7855 27.6439 89.7855 25.8212V14.7929H91.9452V26.1198C91.9452 27.1614 92.2592 27.9196 92.8872 28.3944C93.5305 28.8539 94.3729 29.0837 95.4145 29.0837C96.4867 29.0837 97.3445 28.8539 97.9878 28.3944C98.6311 27.9196 98.9527 27.1614 98.9527 26.1198V14.7929Z" fill="#286B8E"/>
<path d="M103.985 36.1142V25.3616C103.985 24.5652 104.131 23.8146 104.422 23.11C104.713 22.4055 105.111 21.8004 105.617 21.295C106.122 20.7742 106.72 20.3683 107.409 20.0773C108.098 19.7709 108.833 19.6178 109.614 19.6178C110.396 19.6178 111.123 19.7709 111.797 20.0773C112.486 20.3683 113.084 20.7742 113.589 21.295C114.11 21.8158 114.516 22.4284 114.807 23.133C115.098 23.8223 115.243 24.5652 115.243 25.3616C115.243 26.1581 115.098 26.9087 114.807 27.6133C114.531 28.3025 114.141 28.9075 113.635 29.4283C113.13 29.9491 112.532 30.3627 111.843 30.669C111.154 30.96 110.411 31.1055 109.614 31.1055C108.634 31.1055 107.723 30.8758 106.88 30.4163V28.3485C107.631 28.8999 108.519 29.1756 109.546 29.1756C110.097 29.1756 110.595 29.0837 111.039 28.8999C111.498 28.7008 111.881 28.4327 112.188 28.0957C112.509 27.7588 112.754 27.3605 112.923 26.901C113.091 26.4262 113.176 25.9131 113.176 25.3616C113.176 24.8102 113.091 24.3048 112.923 23.8453C112.754 23.3704 112.517 22.9645 112.211 22.6276C111.904 22.2906 111.529 22.0302 111.085 21.8464C110.656 21.6473 110.166 21.5477 109.614 21.5477C109.078 21.5477 108.588 21.6396 108.144 21.8234C107.715 22.0072 107.34 22.2676 107.018 22.6046C106.712 22.9416 106.474 23.3475 106.306 23.8223C106.138 24.2818 106.053 24.7949 106.053 25.3616V36.1142H103.985Z" fill="#286B8E"/>
<path d="M126.771 28.8539V30.8758H123.417C122.789 30.8758 122.291 30.8681 121.923 30.8528C121.571 30.8222 121.127 30.7303 120.591 30.5771C120.054 30.4086 119.603 30.1635 119.235 29.8419C118.668 29.3211 118.301 28.7008 118.132 27.9809C117.964 27.2456 117.879 26.3879 117.879 25.4076V14.7929H120.039V25.3616C120.039 26.25 120.139 26.947 120.338 27.4524C120.736 28.3868 121.571 28.8539 122.842 28.8539H126.771Z" fill="url(#paint0_linear_597_111)"/>
<path d="M134.868 24.3967V26.4645C134.286 26.0203 133.574 25.7982 132.731 25.7982C132.011 25.7982 131.452 25.9437 131.054 26.2347C130.656 26.5104 130.457 26.9087 130.457 27.4294C130.457 28.4404 131.207 28.9458 132.708 28.9458H135.741V24.5575C135.741 22.7041 134.837 21.7775 133.03 21.7775H129.354V19.8475H133.145C134.631 19.8475 135.772 20.2151 136.568 20.9503C137.365 21.6856 137.763 22.7424 137.763 24.121V30.8758H132.639C131.337 30.8758 130.304 30.5848 129.538 30.0027C128.772 29.4207 128.389 28.5706 128.389 27.4524C128.389 26.3343 128.795 25.4842 129.607 24.9021C130.418 24.3201 131.437 24.0291 132.662 24.0291C133.352 24.0291 134.087 24.1516 134.868 24.3967Z" fill="url(#paint1_linear_597_111)"/>
<path d="M140.289 14.7929H142.356V25.3616C142.356 26.5717 142.663 27.5137 143.275 28.1876C143.903 28.8463 144.761 29.1756 145.849 29.1756C146.982 29.1756 147.871 28.8539 148.514 28.2106C149.157 27.552 149.479 26.6023 149.479 25.3616C149.479 24.1822 149.127 23.2556 148.422 22.5816C147.733 21.8923 146.821 21.5477 145.688 21.5477C144.723 21.5477 143.888 21.8234 143.184 22.3748V20.307C144.026 19.8475 144.937 19.6178 145.918 19.6178C147.541 19.6178 148.882 20.1462 149.938 21.2031C151.011 22.2446 151.547 23.6308 151.547 25.3616C151.547 27.1844 150.988 28.6012 149.869 29.6121C148.767 30.6077 147.373 31.1055 145.688 31.1055C144.08 31.1055 142.778 30.5848 141.782 29.5432C140.786 28.5016 140.289 27.1078 140.289 25.3616V14.7929Z" fill="url(#paint2_linear_597_111)"/>
<path d="M10.5285 26.3455C10.3686 25.8658 10.7257 25.3705 11.2313 25.3705H20.2869C20.7925 25.3705 21.1496 25.8658 20.9897 26.3455L19.6317 30.4195C19.5308 30.722 19.2478 30.926 18.9289 30.926H12.5893C12.2705 30.926 11.9874 30.722 11.8866 30.4195L10.5285 26.3455Z" fill="#358FBE"/>
<path d="M12.0561 33.1483C12.0561 32.9437 12.2219 32.7779 12.4265 32.7779H12.7968C13.0014 32.7779 13.1672 32.9437 13.1672 33.1483V37.9631C13.1672 38.1676 13.0014 38.3335 12.7968 38.3335H12.4265C12.2219 38.3335 12.0561 38.1676 12.0561 37.9631V33.1483Z" fill="#286B8E"/>
<path d="M15.204 33.1483C15.204 32.9437 15.3698 32.7779 15.5744 32.7779H15.9448C16.1493 32.7779 16.3151 32.9437 16.3151 33.1483V41.6668C16.3151 41.8714 16.1493 42.0372 15.9448 42.0372H15.5744C15.3698 42.0372 15.204 41.8714 15.204 41.6668V33.1483Z" fill="#286B8E"/>
<path d="M18.3519 33.1483C18.3519 32.9437 18.5178 32.7779 18.7223 32.7779H19.0927C19.2972 32.7779 19.463 32.9437 19.463 33.1483V37.9631C19.463 38.1676 19.2972 38.3335 19.0927 38.3335H18.7223C18.5178 38.3335 18.3519 38.1676 18.3519 37.9631V33.1483Z" fill="#286B8E"/>
<path d="M7.42582 44.6298C7.42582 44.2207 7.75747 43.889 8.16657 43.889H23.3518C23.7609 43.889 24.0925 44.2207 24.0925 44.6298V45.7409H7.42582V44.6298Z" fill="#494949"/>
<path d="M0.759766 48.3335C0.759766 47.9244 1.09141 47.5927 1.50051 47.5927H30.0191C30.4282 47.5927 30.7598 47.9244 30.7598 48.3335V54.2594C30.7598 54.6685 30.4282 55.0002 30.0191 55.0002H1.50051C1.09141 55.0002 0.759766 54.6685 0.759766 54.2594V48.3335Z" fill="#323232"/>
<path d="M0.759766 48.3335C0.759766 47.9244 1.09141 47.5927 1.50051 47.5927H30.0191C30.4282 47.5927 30.7598 47.9244 30.7598 48.3335V49.4446C30.7598 50.4673 29.9307 51.2964 28.908 51.2964H2.61162C1.58887 51.2964 0.759766 50.4673 0.759766 49.4446V48.3335Z" fill="#494949"/>
<path d="M7.42582 45.7409L9.27768 45.7408V47.5927H7.42582V45.7409Z" fill="#494949"/>
<path d="M22.241 45.7408H24.0929V47.5927H22.241V45.7408Z" fill="#494949"/>
<path d="M14.8338 50.7409C14.8338 50.5363 14.9996 50.3705 15.2042 50.3705H16.3153C16.5198 50.3705 16.6857 50.5363 16.6857 50.7409V51.852C16.6857 52.0566 16.5198 52.2224 16.3153 52.2224H15.2042C14.9996 52.2224 14.8338 52.0566 14.8338 51.852V50.7409Z" fill="#FDD86E"/>
<path d="M14.4764 0.740742C15.0467 -0.246915 16.4722 -0.246913 17.0425 0.740744L30.514 24.0741C31.0842 25.0618 30.3714 26.2964 29.231 26.2964H2.28791C1.14746 26.2964 0.43468 25.0618 1.0049 24.0741L14.4764 0.740742Z" fill="url(#paint3_linear_597_111)"/>
<defs>
<linearGradient id="paint0_linear_597_111" x1="15.7594" y1="-1.4815" x2="15.7594" y2="35.5556" gradientUnits="userSpaceOnUse">
<stop stop-color="#42B3ED"/>
<stop offset="1" stop-color="#358FBE"/>
</linearGradient>
<linearGradient id="paint1_linear_597_111" x1="15.7594" y1="-1.4815" x2="15.7594" y2="35.5556" gradientUnits="userSpaceOnUse">
<stop stop-color="#42B3ED"/>
<stop offset="1" stop-color="#358FBE"/>
</linearGradient>
<linearGradient id="paint2_linear_597_111" x1="15.7594" y1="-1.4815" x2="15.7594" y2="35.5556" gradientUnits="userSpaceOnUse">
<stop stop-color="#42B3ED"/>
<stop offset="1" stop-color="#358FBE"/>
</linearGradient>
<linearGradient id="paint3_linear_597_111" x1="15.7594" y1="-1.4815" x2="15.7594" y2="35.5556" gradientUnits="userSpaceOnUse">
<stop stop-color="#42B3ED"/>
<stop offset="1" stop-color="#358FBE"/>
</linearGradient>
</defs>
</svg>
