<svg width="822" height="328" viewBox="0 0 822 328" fill="none" xmlns="http://www.w3.org/2000/svg">
<path d="M352.595 285.04V278.64H355.795C358.782 278.64 361.129 277.76 362.835 276C364.542 274.187 365.395 271.733 365.395 268.64V225.44H371.795V268.64C371.795 272 371.129 274.907 369.795 277.36C368.515 279.813 366.675 281.707 364.275 283.04C361.875 284.373 359.049 285.04 355.795 285.04H352.595Z" fill="#FFFAFA"/>
<path d="M405.06 286C401.007 286 397.327 285.04 394.02 283.12C390.714 281.147 388.074 278.48 386.1 275.12C384.18 271.707 383.22 267.84 383.22 263.52C383.22 259.253 384.18 255.44 386.1 252.08C388.02 248.72 390.607 246.08 393.86 244.16C397.167 242.187 400.9 241.2 405.06 241.2C409.22 241.2 412.927 242.16 416.18 244.08C419.487 246 422.074 248.64 423.94 252C425.86 255.36 426.82 259.2 426.82 263.52C426.82 267.893 425.834 271.787 423.86 275.2C421.887 278.56 419.247 281.2 415.94 283.12C412.687 285.04 409.06 286 405.06 286ZM405.06 280C407.94 280 410.527 279.28 412.82 277.84C415.167 276.4 417.007 274.427 418.34 271.92C419.727 269.413 420.42 266.613 420.42 263.52C420.42 260.427 419.727 257.653 418.34 255.2C417.007 252.747 415.167 250.8 412.82 249.36C410.527 247.92 407.94 247.2 405.06 247.2C402.18 247.2 399.567 247.92 397.22 249.36C394.927 250.8 393.087 252.747 391.7 255.2C390.314 257.653 389.62 260.427 389.62 263.52C389.62 266.613 390.314 269.413 391.7 271.92C393.087 274.427 394.927 276.4 397.22 277.84C399.567 279.28 402.18 280 405.06 280Z" fill="#FFFAFA"/>
<path d="M459.082 286C455.402 286 452.069 285.173 449.082 283.52C446.149 281.813 443.936 279.413 442.442 276.32L443.402 275.44V285.04H437.402V224.48H443.402V251.76L442.442 250.08C444.149 247.36 446.416 245.2 449.242 243.6C452.122 242 455.402 241.2 459.082 241.2C463.136 241.2 466.736 242.187 469.882 244.16C473.082 246.08 475.589 248.72 477.402 252.08C479.269 255.44 480.202 259.28 480.202 263.6C480.202 267.867 479.269 271.707 477.402 275.12C475.589 278.48 473.082 281.147 469.882 283.12C466.736 285.04 463.136 286 459.082 286ZM458.762 280C461.642 280 464.202 279.28 466.442 277.84C468.736 276.4 470.522 274.453 471.802 272C473.136 269.493 473.802 266.693 473.802 263.6C473.802 260.453 473.136 257.653 471.802 255.2C470.522 252.747 468.736 250.8 466.442 249.36C464.202 247.92 461.642 247.2 458.762 247.2C455.882 247.2 453.269 247.92 450.922 249.36C448.629 250.8 446.789 252.773 445.402 255.28C444.069 257.733 443.402 260.507 443.402 263.6C443.402 266.693 444.069 269.493 445.402 272C446.789 274.453 448.629 276.4 450.922 277.84C453.269 279.28 455.882 280 458.762 280Z" fill="#FFFAFA"/>
<path d="M505.235 285.04V225.44H525.715C529.609 225.44 533.022 226.213 535.955 227.76C538.889 229.253 541.155 231.387 542.755 234.16C544.409 236.88 545.235 240.053 545.235 243.68C545.235 247.307 544.409 250.48 542.755 253.2C541.155 255.92 538.889 258.053 535.955 259.6C533.075 261.093 529.662 261.84 525.715 261.84H511.635V285.04H505.235ZM511.635 255.84H526.035C528.595 255.84 530.835 255.36 532.755 254.4C534.675 253.387 536.169 251.973 537.235 250.16C538.302 248.293 538.835 246.107 538.835 243.6C538.835 241.093 538.302 238.933 537.235 237.12C536.169 235.307 534.675 233.92 532.755 232.96C530.835 231.947 528.595 231.44 526.035 231.44H511.635V255.84Z" fill="#FFFAFA"/>
<path d="M574.279 286C570.226 286 566.546 285.04 563.239 283.12C559.932 281.147 557.292 278.48 555.319 275.12C553.399 271.707 552.439 267.84 552.439 263.52C552.439 259.253 553.399 255.44 555.319 252.08C557.239 248.72 559.826 246.08 563.079 244.16C566.386 242.187 570.119 241.2 574.279 241.2C578.439 241.2 582.146 242.16 585.399 244.08C588.706 246 591.292 248.64 593.159 252C595.079 255.36 596.039 259.2 596.039 263.52C596.039 267.893 595.052 271.787 593.079 275.2C591.106 278.56 588.466 281.2 585.159 283.12C581.906 285.04 578.279 286 574.279 286ZM574.279 280C577.159 280 579.746 279.28 582.039 277.84C584.386 276.4 586.226 274.427 587.559 271.92C588.946 269.413 589.639 266.613 589.639 263.52C589.639 260.427 588.946 257.653 587.559 255.2C586.226 252.747 584.386 250.8 582.039 249.36C579.746 247.92 577.159 247.2 574.279 247.2C571.399 247.2 568.786 247.92 566.439 249.36C564.146 250.8 562.306 252.747 560.919 255.2C559.532 257.653 558.839 260.427 558.839 263.52C558.839 266.613 559.532 269.413 560.919 271.92C562.306 274.427 564.146 276.4 566.439 277.84C568.786 279.28 571.399 280 574.279 280Z" fill="#FFFAFA"/>
<path d="M606.621 285.04V242.16H612.621V249.2L611.821 248.16C612.834 246.133 614.354 244.533 616.381 243.36C618.461 242.187 620.968 241.6 623.901 241.6H626.621V247.6H622.861C619.768 247.6 617.288 248.56 615.421 250.48C613.554 252.4 612.621 255.12 612.621 258.64V285.04H606.621Z" fill="#FFFAFA"/>
<path d="M650.052 285.52C646.212 285.52 643.252 284.4 641.172 282.16C639.092 279.92 638.052 276.72 638.052 272.56V248.16H630.132V242.16H632.132C633.946 242.16 635.386 241.573 636.452 240.4C637.519 239.173 638.052 237.653 638.052 235.84V232.24H644.052V242.16H653.492V248.16H644.052V272.56C644.052 274 644.266 275.28 644.692 276.4C645.119 277.467 645.839 278.32 646.852 278.96C647.919 279.6 649.332 279.92 651.092 279.92C651.519 279.92 652.026 279.893 652.612 279.84C653.199 279.787 653.706 279.733 654.132 279.68V285.04C653.492 285.2 652.772 285.307 651.972 285.36C651.172 285.467 650.532 285.52 650.052 285.52Z" fill="#FFFAFA"/>
<path d="M676.287 286C673.567 286 671.14 285.493 669.007 284.48C666.873 283.413 665.193 281.973 663.967 280.16C662.74 278.347 662.127 276.267 662.127 273.92C662.127 271.68 662.607 269.653 663.567 267.84C664.527 265.973 666.02 264.4 668.047 263.12C670.073 261.84 672.66 260.933 675.807 260.4L692.607 257.6V263.04L677.247 265.6C674.153 266.133 671.913 267.12 670.527 268.56C669.193 270 668.527 271.707 668.527 273.68C668.527 275.6 669.273 277.227 670.767 278.56C672.313 279.893 674.287 280.56 676.687 280.56C679.62 280.56 682.18 279.947 684.367 278.72C686.553 277.44 688.26 275.733 689.487 273.6C690.713 271.467 691.327 269.093 691.327 266.48V255.6C691.327 253.04 690.393 250.96 688.527 249.36C686.66 247.76 684.233 246.96 681.247 246.96C678.633 246.96 676.34 247.627 674.367 248.96C672.393 250.24 670.927 251.92 669.967 254L664.527 251.04C665.327 249.227 666.58 247.573 668.287 246.08C670.047 244.587 672.047 243.413 674.287 242.56C676.527 241.653 678.847 241.2 681.247 241.2C684.393 241.2 687.167 241.813 689.567 243.04C692.02 244.267 693.913 245.973 695.247 248.16C696.633 250.293 697.327 252.773 697.327 255.6V285.04H691.327V276.48L692.207 277.36C691.46 278.96 690.287 280.427 688.687 281.76C687.14 283.04 685.3 284.08 683.167 284.88C681.087 285.627 678.793 286 676.287 286Z" fill="#FFFAFA"/>
<path d="M709.668 285.04V224.48H715.668V285.04H709.668Z" fill="#FFFAFA"/>
<path d="M63.5632 159.337C62.5962 156.436 64.7555 153.44 67.8133 153.44H122.582C125.64 153.44 127.799 156.436 126.832 159.337L118.619 183.977C118.009 185.806 116.297 187.04 114.369 187.04H76.0267C74.0983 187.04 72.3863 185.806 71.7766 183.977L63.5632 159.337Z" fill="#358FBE"/>
<path d="M72.793 200.48C72.793 199.243 73.7958 198.24 75.033 198.24H77.273C78.5101 198.24 79.513 199.243 79.513 200.48V229.6C79.513 230.837 78.5101 231.84 77.273 231.84H75.033C73.7958 231.84 72.793 230.837 72.793 229.6V200.48Z" fill="#FFFAFA"/>
<path d="M91.832 200.48C91.832 199.243 92.8349 198.24 94.072 198.24H96.312C97.5492 198.24 98.552 199.243 98.552 200.48V252C98.552 253.237 97.5492 254.24 96.312 254.24H94.072C92.8349 254.24 91.832 253.237 91.832 252V200.48Z" fill="#FFFAFA"/>
<path d="M110.879 200.48C110.879 199.243 111.882 198.24 113.119 198.24H115.359C116.596 198.24 117.599 199.243 117.599 200.48V229.6C117.599 230.837 116.596 231.84 115.359 231.84H113.119C111.882 231.84 110.879 230.837 110.879 229.6V200.48Z" fill="#FFFAFA"/>
<path d="M44.793 267.68C44.793 266.443 45.7959 265.44 47.033 265.44H143.353C144.59 265.44 145.593 266.443 145.593 267.68V276.64H44.793V267.68Z" fill="#494949"/>
<path d="M0 290.08C0 288.843 1.00288 287.84 2.24 287.84H188.16C189.397 287.84 190.4 288.843 190.4 290.08V324.8C190.4 326.037 189.397 327.04 188.16 327.04H2.24001C1.00289 327.04 0 326.037 0 324.8V290.08Z" fill="#323232"/>
<path d="M0 290.08C0 288.843 1.00288 287.84 2.24 287.84H188.16C189.397 287.84 190.4 288.843 190.4 290.08V299.04C190.4 305.226 185.386 310.24 179.2 310.24H11.2C5.01441 310.24 0 305.226 0 299.04V290.08Z" fill="#494949"/>
<path d="M44.793 276.64L55.993 276.64V287.84H44.793V276.64Z" fill="#494949"/>
<path d="M134.391 276.64H145.591V287.84H134.391V276.64Z" fill="#494949"/>
<path d="M89.5977 306.88C89.5977 305.642 90.6005 304.64 91.8377 304.64H98.5577C99.7948 304.64 100.798 305.642 100.798 306.88V313.6C100.798 314.837 99.7948 315.84 98.5577 315.84H91.8377C90.6005 315.84 89.5977 314.837 89.5977 313.6V306.88Z" fill="#FDD86E"/>
<path d="M87.4357 4.48C90.8844 -1.49334 99.5062 -1.49333 102.955 4.48L184.431 145.6C187.879 151.573 183.568 159.04 176.671 159.04H13.7196C6.82223 159.04 2.51135 151.573 5.96006 145.6L87.4357 4.48Z" fill="url(#paint0_linear_592_3)"/>
<path d="M292.955 117.04V127.6H271.715C263.635 127.6 259.595 130.88 259.595 137.44C259.595 140.96 261.355 143.96 264.875 146.44C268.475 148.84 273.315 151.16 279.395 153.4C282.115 154.44 284.435 155.52 286.355 156.64C288.275 157.68 290.195 159.08 292.115 160.84C294.035 162.6 295.475 164.88 296.435 167.68C297.395 170.4 297.875 173.56 297.875 177.16C297.875 181.16 297.035 184.76 295.355 187.96C293.675 191.08 291.515 193.56 288.875 195.4C286.235 197.16 283.515 198.52 280.715 199.48C277.995 200.36 275.315 200.84 272.675 200.92C271.555 201 269.955 201.04 267.875 201.04H249.155V190.48H267.515C272.955 190.48 277.395 189.36 280.835 187.12C284.275 184.8 285.995 181.44 285.995 177.04C285.995 174.88 285.515 173 284.555 171.4C283.595 169.72 282.195 168.28 280.355 167.08C278.595 165.88 276.755 164.84 274.835 163.96C272.995 163.08 270.755 162.16 268.115 161.2C267.395 160.96 266.835 160.76 266.435 160.6C253.875 155.8 247.595 147.96 247.595 137.08C247.595 130.36 249.755 125.36 254.075 122.08C258.395 118.72 264.035 117.04 270.995 117.04H292.955Z" fill="#FFFAFA"/>
<path d="M303.864 153.52L325.344 132.04V143.44H341.544V153.52H325.344V178.24C325.344 181.04 325.784 183.36 326.664 185.2C327.624 187.04 328.984 188.36 330.744 189.16C332.504 189.88 334.144 190.36 335.664 190.6C337.264 190.84 339.224 190.96 341.544 190.96V201.04C332.344 201.04 325.544 199.28 321.144 195.76C316.744 192.24 314.544 186.4 314.544 178.24V153.52H303.864Z" fill="#FFFAFA"/>
<path d="M385.029 167.2V178C381.989 175.68 378.269 174.52 373.869 174.52C370.109 174.52 367.189 175.28 365.109 176.8C363.029 178.24 361.989 180.32 361.989 183.04C361.989 188.32 365.909 190.96 373.749 190.96H389.589V168.04C389.589 158.36 384.869 153.52 375.429 153.52H356.229V143.44H376.029C383.789 143.44 389.749 145.36 393.909 149.2C398.069 153.04 400.149 158.56 400.149 165.76V201.04H373.389C366.589 201.04 361.189 199.52 357.189 196.48C353.189 193.44 351.189 189 351.189 183.16C351.189 177.32 353.309 172.88 357.549 169.84C361.789 166.8 367.109 165.28 373.509 165.28C377.109 165.28 380.949 165.92 385.029 167.2Z" fill="#FFFAFA"/>
<path d="M411.541 201.04V168.28C411.541 159.08 413.261 152.72 416.701 149.2C418.381 147.44 420.421 146.12 422.821 145.24C425.221 144.36 427.301 143.84 429.061 143.68C430.901 143.52 433.381 143.44 436.501 143.44H447.061V153.52H434.341C432.741 153.52 431.501 153.56 430.621 153.64C429.741 153.72 428.701 154 427.501 154.48C426.301 154.96 425.261 155.72 424.381 156.76C422.861 158.68 422.101 162.52 422.101 168.28V201.04H411.541Z" fill="#FFFAFA"/>
<path d="M448.825 153.52L470.305 132.04V143.44H486.505V153.52H470.305V178.24C470.305 181.04 470.745 183.36 471.625 185.2C472.585 187.04 473.945 188.36 475.705 189.16C477.465 189.88 479.105 190.36 480.625 190.6C482.225 190.84 484.185 190.96 486.505 190.96V201.04C477.305 201.04 470.505 199.28 466.105 195.76C461.705 192.24 459.505 186.4 459.505 178.24V153.52H448.825Z" fill="#FFFAFA"/>
<path d="M546.43 117.04H557.71V174.64C557.71 184.16 555.23 191.16 550.27 195.64C545.39 200.04 537.99 202.24 528.07 202.24C518.15 202.24 510.75 200.04 505.87 195.64C500.99 191.16 498.55 184.16 498.55 174.64V117.04H509.83V176.2C509.83 181.64 511.47 185.6 514.75 188.08C518.11 190.48 522.51 191.68 527.95 191.68C533.55 191.68 538.03 190.48 541.39 188.08C544.75 185.6 546.43 181.64 546.43 176.2V117.04Z" fill="#FFFAFA"/>
<path d="M572.716 228.4V172.24C572.716 168.08 573.476 164.16 574.996 160.48C576.516 156.8 578.596 153.64 581.236 151C583.876 148.28 586.996 146.16 590.596 144.64C594.196 143.04 598.036 142.24 602.116 142.24C606.196 142.24 609.996 143.04 613.516 144.64C617.116 146.16 620.236 148.28 622.876 151C625.596 153.72 627.716 156.92 629.236 160.6C630.756 164.2 631.516 168.08 631.516 172.24C631.516 176.4 630.756 180.32 629.236 184C627.796 187.6 625.756 190.76 623.116 193.48C620.476 196.2 617.356 198.36 613.756 199.96C610.156 201.48 606.276 202.24 602.116 202.24C596.996 202.24 592.236 201.04 587.836 198.64V187.84C591.756 190.72 596.396 192.16 601.756 192.16C604.636 192.16 607.236 191.68 609.556 190.72C611.956 189.68 613.956 188.28 615.556 186.52C617.236 184.76 618.516 182.68 619.396 180.28C620.276 177.8 620.716 175.12 620.716 172.24C620.716 169.36 620.276 166.72 619.396 164.32C618.516 161.84 617.276 159.72 615.676 157.96C614.076 156.2 612.116 154.84 609.796 153.88C607.556 152.84 604.996 152.32 602.116 152.32C599.316 152.32 596.756 152.8 594.436 153.76C592.196 154.72 590.236 156.08 588.556 157.84C586.956 159.6 585.716 161.72 584.836 164.2C583.956 166.6 583.516 169.28 583.516 172.24V228.4H572.716Z" fill="#FFFAFA"/>
<path d="M691.723 190.48V201.04H674.203C670.923 201.04 668.323 201 666.403 200.92C664.563 200.76 662.243 200.28 659.443 199.48C656.643 198.6 654.283 197.32 652.363 195.64C649.403 192.92 647.483 189.68 646.603 185.92C645.723 182.08 645.283 177.6 645.283 172.48V117.04H656.563V172.24C656.563 176.88 657.083 180.52 658.123 183.16C660.203 188.04 664.563 190.48 671.203 190.48H691.723Z" fill="#358FBE"/>
<path d="M734.013 167.2V178C730.973 175.68 727.253 174.52 722.853 174.52C719.093 174.52 716.173 175.28 714.093 176.8C712.013 178.24 710.973 180.32 710.973 183.04C710.973 188.32 714.893 190.96 722.733 190.96H738.573V168.04C738.573 158.36 733.853 153.52 724.413 153.52H705.213V143.44H725.013C732.773 143.44 738.733 145.36 742.893 149.2C747.053 153.04 749.133 158.56 749.133 165.76V201.04H722.373C715.573 201.04 710.173 199.52 706.173 196.48C702.173 193.44 700.173 189 700.173 183.16C700.173 177.32 702.293 172.88 706.533 169.84C710.773 166.8 716.093 165.28 722.493 165.28C726.093 165.28 729.933 165.92 734.013 167.2Z" fill="#358FBE"/>
<path d="M762.325 117.04H773.125V172.24C773.125 178.56 774.725 183.48 777.925 187C781.205 190.44 785.685 192.16 791.365 192.16C797.285 192.16 801.925 190.48 805.285 187.12C808.645 183.68 810.325 178.72 810.325 172.24C810.325 166.08 808.485 161.24 804.805 157.72C801.205 154.12 796.445 152.32 790.525 152.32C785.485 152.32 781.125 153.76 777.445 156.64V145.84C781.845 143.44 786.605 142.24 791.725 142.24C800.205 142.24 807.205 145 812.725 150.52C818.325 155.96 821.125 163.2 821.125 172.24C821.125 181.76 818.205 189.16 812.365 194.44C806.605 199.64 799.325 202.24 790.525 202.24C782.125 202.24 775.325 199.52 770.125 194.08C764.925 188.64 762.325 181.36 762.325 172.24V117.04Z" fill="#358FBE"/>
<defs>
<linearGradient id="paint0_linear_592_3" x1="410.562" y1="0" x2="410.562" y2="327.04" gradientUnits="userSpaceOnUse">
<stop stop-color="#42B3ED"/>
<stop offset="1" stop-color="#358FBE"/>
</linearGradient>
</defs>
</svg>
